<svg xmlns="http://www.w3.org/2000/svg" viewBox="0 0 230 135"><path fill="#010000" stroke="#010000" stroke-width=".1" d="M0 0h230v135H0Z"/><path fill="#fff" d="M20.236 6.8h-3.961V2.178h1.32v3.96h.66V3.5h.66v2.64h.661V2.179h1.32V6.8Zm5.284 0h-.66V4.16h-.661v.66h-.66v.66h-.661V6.8h-1.32V2.178h1.32v2.64h.66v-.66h.66v-.66h.661v-1.32h1.32V6.8Zm1.98.66h-.66V2.178h3.302v.66h.66v3.301h-.66V6.8h-1.981v.66zm1.321-1.32h.66V2.838h-1.32v3.301Zm5.283.66h-1.98v-.66h-.661V2.838h.66v-.66h2.641v.66h.661v3.301h-.66V6.8Zm-.66-.66h.66V2.838h-1.32v3.301Zm5.944.66h-.66v-.66h-.661v-.66h-.66V6.8h-1.322V2.178h1.32v1.32h.66v-.66h.661v-.66h1.32v.66h-.66v.66h-.66v.66h-.66v.66h.66v.661h.66v.66h.66V6.8zm4.622 0h-2.64v-.66h-.66V4.819h.66v-.66h1.98V2.838h-1.98v-.66h2.641v.66h.66V6.8Zm-1.32-.66h.66V4.819h-1.32v1.32zm5.943.66h-.66V5.48h-.66v.66h-.661v.66H45.33v-.66h.66v-.66h.66v-.661h-.66v-.66h-.66V2.838h.66v-.66h3.303V6.8Zm-1.32-2.641h.66V2.838h-1.322v1.32zM55.897 6.8h-2.641v-.66h2.641V4.819h-1.32v-.66h1.32V2.838h-2.641v-.66h3.301v.66h.66v3.301h-.66V6.8zm5.943 0h-.66V2.838h-1.32V6.8h-1.982v-.66h.66V2.838h.66v-.66H62.5V6.8Zm3.963-.66h.66v.66h-2.641v-.66h-.66V2.838h.66v-.66h2.641v.66h.66v1.98h-2.641V6.14h.66zm-.66-1.981h.66V2.838h-1.321v1.32zM71.086 6.8h-.66v-.66h-.66v-.66h-.661V6.8h-1.321V2.178h1.32v1.32h.661v-.66h.66v-.66h1.321v.66h-.66v.66h-.66v.66h-.66v.66h.66v.661h.66v.66h.66V6.8zm3.302 0h-.66V2.838h-1.322v-.66h3.962v.66h-1.32V6.8Zm3.302.66h-.66V2.178h3.301v.66h.66v3.301h-.66V6.8H78.35v.66Zm1.32-1.32h.66V2.838h-1.32v3.301Zm6.604.66h-.66V4.16h-.66v.66h-.66v.66h-.661V6.8h-1.321V2.178h1.32v2.64h.661v-.66h.66v-.66h.66v-1.32h1.322V6.8Zm3.302.66V6.8h-1.32v-.66h-.661V2.838h.66v-.66h1.321v-.661h.66v.66h1.322v.66h.66V6.14h-.66v.66h-1.32v.66Zm1.32-1.32V2.838h-.66v3.301Zm-1.32 0V2.838h-.66v3.301Zm7.264.66h-.66V4.16h-.66v.66h-.66v.66h-.661V6.8h-1.321V2.178h1.32v2.64h.661v-.66h.66v-.66h.66v-1.32h1.321V6.8Zm4.623 0h-.66v-.66h-.66v-.66h-.661V6.8h-1.32V2.178h1.32v1.32h.66v-.66h.66v-.66h1.322v.66h-.66v.66h-.66v.66h-.66v.66h.66v.661h.66v.66h.66V6.8zm4.623 0h-2.641v-.66h-.661V4.819h.66v-.66h1.981V2.838h-1.98v-.66h2.64v.66h.661V6.8Zm-1.321-.66h.66V4.819h-1.32v1.32zm5.943 1.32h-.66V6.8h-2.641V2.178h1.32v3.96h1.32V2.179h1.322V7.46Zm5.283-.66h-.66V4.16h-.66v.66h-.66v.66h-.661V6.8h-1.32V2.178h1.32v2.64h.66v-.66h.66v-.66h.661v-1.32h1.32V6.8Zm4.623 0h-.66V5.48h-.66v.66h-.661v.66h-1.32v-.66h.66v-.66h.66v-.661h-.66v-.66h-.66V2.838h.66v-.66h3.301V6.8Zm-1.32-2.641h.66V2.838h-1.321v1.32zm9.245 2.641h-1.321v-.66h-.66v.66h-1.322V2.178h1.32v.66h.66v-.66h1.984v.66h.66v3.301h-.66V6.8zm0-.66V2.838h-.66v3.301Zm3.961.66V5.48h-.66V6.8h-1.32V5.48h.66v-.661h1.32v-.66h-1.32v-.66h-.66V2.177h1.32v1.32h.66v-1.32h.661v1.32h.66v-1.32h1.322v1.32h-.66v.66h-1.32v.66h1.32v.661h.66V6.8h-1.32V5.48h-.66V6.8zm6.605 0h-.66V4.82h-1.322V6.8h-1.32V2.178h1.32v1.98h1.322v-1.98h1.32V6.8Zm5.283 0h-.66v-.66h-.661v.66h-2.641V2.178h1.32v1.98h1.321v.66h.66v-2.64h1.321V6.8Zm-1.981-.66V4.819h-.66v1.32zm7.263.66h-.66v-.66h-.66v-.66h-.66v.66h-.66v.66h-1.322v-.66h.66v-.66h.66v-.661h.66v-.66h-.66v-.66h-.66v-.661h-.66v-.66h1.32v.66h.66v.66h.661v-.66h.66v-.66h1.322v.66h-.66v.66h-.66v.66h-.66v.66h.66v.661h.66v.66h.66V6.8zm5.284 0h-.66V2.178h3.96v.66h-2.64V6.8Zm6.604 0h-1.981v-.66h1.98V4.819h-1.98v-.66h-.66V2.178h1.32v1.98h1.32v-1.98h1.322v3.96h-.66V6.8zm4.622 0h-2.641V2.178h3.301v.66h-1.98v1.32h1.98v.66h.661V6.14h-.66v.66zm-.66-.66h.66V4.819h-1.32v1.32zm5.283 0h.66v.66h-2.641v-.66h-.66V2.838h.66v-.66h2.641v.66h.66v1.98h-2.64V6.14h.66zm-.66-1.981h.66V2.838h-1.32v1.32zm3.302 3.301h-.66V2.178h3.301v.66h.66v3.301h-.66V6.8h-1.981v.66zm1.32-1.32h.66V2.838h-1.32v3.301Zm5.944.66h-.66V4.82h-1.322V6.8h-1.32V2.178h1.32v1.98h1.322v-1.98h1.321V6.8Zm5.283 0h-.66V4.16h-.661v.66h-.66v.66h-.66V6.8h-1.321V2.178h1.32v2.64h.66v-.66h.661v-.66h.66v-1.32h1.321V6.8Zm3.302-3.962v-.66h.66v.66zm1.98 3.962h-.66V4.16h-.66v.66h-.66v.66h-.66V6.8h-1.322V2.178h1.32v2.64h.66v-.66h.661v-.66h.66v-1.32h1.322V6.8Zm9.246.66h-.66V6.8h-2.641v.66h-1.322V6.14h.66V3.499h.66v-.661h.66v-.66h2.643v3.96h.66V7.46zm-1.981-1.32h.66V2.838h-.66v.66h-.66V6.14Zm6.604.66h-2.641v-.66h-.661V4.819h.66v-.66h1.981V2.838h-1.98v-.66h2.64v.66h.661V6.8Zm-1.32-.66h.66V4.819h-1.322v1.32zm5.282 0h.66v.66h-2.641v-.66h-.66V2.838h.66v-.66h2.641v.66h-1.98v3.301h.66zm3.302.66h-.66V2.838h-1.321v-.66h3.962v.66h-1.32V6.8ZM22.548 11.687v-.66h.66v.66zm1.98 1.981h-.66v-2.641h-.66v-.66h.66v-.661h.66v-.66h.661v4.622zm-3.301 0h-.66V9.046h.66v.66h.66v.66h.66v.66h-.66v2.643zm7.264 0h-1.98v-.66h-.661V9.706h.66v-.66h2.641v.66h.661v3.301h-.66v.661zm-.66-.66h.66V9.706h-1.32v3.301zm6.604 1.32h-.66v-.66h-3.303V9.046h1.32v3.96h.66v-2.64h.66v2.64h.661V9.047h1.322v5.282zm4.622-.66h-.66v-1.981h-1.32v1.981h-1.322V9.046h1.32v1.98h1.322v-1.98h1.32v4.622zm5.283 0h-.66v-.66h-.66v.66h-2.641V9.046h1.32v1.98h1.32v.66h.661v-2.64H45v4.622zm-1.98-.66v-1.321h-.661v1.32zm5.282-3.302v-.66h.66v.66zm1.981 3.962h-.66v-2.641h-.66v.66h-.66v.66h-.661v1.321h-1.32V9.046h1.32v2.64h.66v-.66h.66v-.66h.661v-1.32h1.32v4.622zm6.604 0h-.66V9.706h-1.32v-.66h3.96v.66h-1.32v3.962zm5.283 0h-1.98v-.66h-.661V9.706h.66v-.66h2.641v.66h.661v3.301h-.66v.661zm-.66-.66h.66V9.706h-1.32v3.301zm6.604.66h-.66V9.706h-1.322v3.962h-1.98v-.66h.66V9.706h.66v-.66h3.302v4.622zm4.622 0h-.66v-1.981h-2.641V9.046h1.32v1.98h1.321v-1.98h1.32v4.622zm3.963 0h-1.981v-.66h-.66V9.706h.66v-.66h2.641v.66h.66v3.301h-.66v.661zm-.66-.66h.66V9.706h-1.321v3.301zm5.943.66h-.66v-.66H80v-.66h-.66v1.32h-1.32V9.046h1.32v1.32h.661v-.66h.66v-.66h1.321v.66h-.66v.66h-.66v.66H80v.66h.66v.661h.66v.66h.661v.661zm7.924 0h-.66V9.706h-1.32v3.962h-1.322V9.046h3.961v4.622zm3.963 0h-1.981v-.66h-.66V9.706h.66v-.66h2.641v.66h.66v3.301h-.66v.661zm-.66-.66h.66V9.706h-1.321v3.301zm7.263 1.32h-.66v-.66h-2.641v.66H95.19v-1.32h.66v-2.641h.66v-.661h.66v-.66h2.643v3.96h.66v1.323zm-1.98-1.32h.66V9.706h-.66v.66h-.661v2.641zm5.943.66h-2.641V9.706h-.661v-.66h1.98v1.98h1.983v.66h.66v1.322h-.66v.661zm-.66-.66h.66v-1.321h-1.321v1.32zm5.282-4.623v-.66h.66v.66zm-1.32 0v-.66h.66v.66zm1.32 4.623h.66v.66h-2.64v-.66h-.661V9.706h.66v-.66h2.641v.66h.661v1.98h-2.641v1.322h.66zm-.66-1.981h.66V9.706h-1.32v1.32Zm4.623.66v-.66h.66v.66zm1.98 1.981h-.66v-2.641h-.66v-.66h.66v-.661h.66v-.66h.661v4.622zm-3.301 0h-.66V9.046h.66v.66h.66v.66h.66v.66h-.66v2.643zm7.264 0h-1.981v-.66h1.981v-1.321h-1.981v-.66h-.66V9.046h1.32v1.98h1.321v-1.98h1.32v3.96h-.66v.661zm7.925-.66h.66v.66h-2.641v-.66h-.66V9.706h.66v-.66h2.641v.66h-1.981v3.301h.66zm3.962 0h.66v.66h-2.641v-.66h-.66V9.706h.66v-.66h2.641v.66h.66v1.98h-2.64v1.322h.66zm-.66-1.981h.66V9.706h-1.32v1.32Zm6.603 2.641h-.66V9.706h-1.32v3.962h-1.982v-.66h.66V9.706h.66v-.66h3.301v4.622zm3.963 0h-2.641V9.046h1.32v1.98h1.981v.66h.66v1.322h-.66v.661zm-.66-.66h.66v-1.321h-1.321v1.32zm5.282 0h.66v.66h-2.64v-.66h-.661V9.706h.66v-.66h2.641v.66h-1.98v3.301h.66zm4.623.66h-.66v-.66h-.66v-.66h-.661v1.32h-1.32V9.046h1.32v1.32h.66v-.66h.66v-.66h1.322v.66h-.66v.66h-.66v.66h-.66v.66h.66v.661h.66v.66h.66v.661zm3.962 0h-1.98v-.66h-.661V9.706h.66v-.66h2.641v.66h.661v3.301h-.66v.661zm-.66-.66h.66V9.706h-1.32v3.301zm3.302.66h-.66V9.046h3.96v.66h-2.64v3.962zm6.604 0h-1.981v-.66h-.66V9.706h.66v-.66h2.641v.66h.66v3.301h-.66v.661zm-.66-.66h.66V9.706h-1.321v3.301zm9.905.66h-.66v-.66h-.66v-.66h-.661v.66h-.66v.66h-1.322v-.66h.66v-.66h.66v-.661h.66v-.66h-.66v-.66h-.66v-.661h-.66v-.66h1.32v.66h.66v.66h.661v-.66h.66v-.66h1.323v.66h-.66v.66h-.66v.66h-.66v.66h.66v.661h.66v.66h.66v.661zm3.962 0h-1.98v-.66h-.661V9.706h.66v-.66h2.641v.66h.661v3.301h-.66v.661zm-.66-.66h.66V9.706h-1.32v3.301zm5.283.66h-2.641v-.66h2.64v-1.321h-1.32v-.66h1.32V9.706h-2.64v-.66h3.301v.66h.66v1.32h-.66v.66h.66v1.322h-.66v.661zm5.283 0h-.66v-1.32h-.66v.66h-.661v.66h-1.32v-.66h.66v-.66h.66v-.661h-.66v-.66h-.66V9.706h.66v-.66h3.301v4.622zm-1.32-2.641h.66V9.706h-1.322v1.32Zm4.622-1.321v-.66h.66v.66zm1.981 3.962h-.66v-2.641h-.66v.66h-.661v.66h-.66v1.321h-1.322V9.046h1.32v2.64h.66v-.66h.661v-.66h.66v-1.32h1.323v4.622zm3.962-.66h.66v.66h-2.64v-.66h-.661V9.706h.66v-.66h2.641v.66h-1.98v3.301h.66zm3.303.66h-.661V9.706h-1.32v-.66h3.961v.66h-1.32v3.962zm5.282 0h-2.641V9.046h3.301v.66h.661v1.32h-.66v.66h.66v1.322h-.66v.661zm-.66-.66h.66v-1.321h-1.32v1.32zm0-1.981h.66V9.706h-1.32v1.32Zm5.943 2.641h-2.641v-.66h-.66v-1.321h.66v-.66h1.98V9.706h-1.98v-.66h2.641v.66h.66v3.962zm-1.32-.66h.66v-1.321h-1.32v1.32z" aria-label="широкая электрификация южных губерний даст мощный толчок подъёму сельского хозяйства" font-family="SunDog" font-size="10.566" style="line-height:.6;-inkscape-font-specification:SunDog;text-align:center" text-anchor="middle"/><path fill="#fff" d="M27.5 39.423h.661v.66H26.18v-.66h-.66V36.12h-1.321v-.66h1.32v-1.32h1.321v1.32h1.321v.66h-1.32v3.303zm4.623.66h-.66v-3.962h-1.32v3.962h-1.322V34.14h1.32v1.32h1.982v.66h.66v3.964zm3.963-.66h.66v.66h-2.641v-.66h-.66V36.12h.66v-.66h2.641v.66h.66v1.981h-2.641v1.32h.66zm-.66-1.981h.66V36.12h-1.321v1.32zm9.244 3.962h-.66v-1.32h-1.98v-.661h-.661V36.12h.66v-.66h3.302v5.943zm-1.32-1.981h.66V36.12h-1.32v3.301zm5.943.66h-2.641v-.66h-.66V35.46h1.32v3.962h1.32v-3.96h1.322v4.622zm1.981 0h-.66v-4.622h1.32v4.622zm0-5.943h.66v.66h-1.32v-.66zm3.963 5.283h.66v.66h-2.641v-.66h-.66V36.12h.66v-.66h2.641v.66h-1.981v3.301h.66zm4.623.66h-.661v-.66h-.66v-.66h-.66v1.32h-1.322V34.14h1.32v2.641h.66v-.66h.661v-.66h1.32v.66h-.66v.66h-.66v.66h-.66v.661h.66v.66h.66v.66h.66v.661zm7.264 0h-2.642V34.14h1.32v1.32h1.982v.66h.661v3.303h-.66v.661zm-.66-.66h.66V36.12h-1.321v3.301zm3.301.66h-.66v-4.622h1.32v.66h.66v.66h-.66v3.302zm1.981-4.622h.66v.66h-1.32v-.66zm3.962 4.622h-1.98v-.66h-.661V36.12h.66v-.66h2.641v.66h.661v3.301h-.66v.661zm-.66-.66h.66V36.12h-1.32v3.301zm6.604.66v-.66h-.66v-.66h-.66v-.66h.66V35.46h1.32v4.622zm-3.962 0v-4.622h1.32v2.641h.66v.66h-.66v.66h-.66v.661zm2.641-1.98h-.66v-.661h.66zm5.944 1.98h-.66v-3.962h-1.322v3.962h-1.321v-4.622h3.301v.66h.661v3.962zm5.943 0h-.66v-3.962h-1.321v-.66h1.32v-.66h.661v-.661h1.981v.66h-1.32v.66h1.32v.66h-1.32v3.964zm5.283 0H95.52v-.66h-.66V36.12h.66v-.66h2.641v.66h.66v3.301h-.66v.661zm-.66-.66h.66V36.12h-1.32v3.301zm6.604.66h-.66v-.66h-.661v-.66h-.66v.66h-.661v.66h-1.32v-.66h.66v-.66h.66v-.66h.66v-.661h-.66v-.66h-.66v-.661h-.66v-.66h1.32v.66h.66v.66h.66v-.66h.661v-.66h1.32v.66h-.66v.66h-.66v.66h-.66v.661h.66v.66h.66v.66h.66v.661zm7.264 0h-1.981v-.66h-.66v-1.32h1.32v1.32h1.32V35.46h1.322v3.962h-.66v.661zm.66-5.943h.66v.66h-1.32v-.66zm4.623 5.943h-2.642v-.66h-.661V35.46h1.32v3.962h1.323v-3.96h1.32v4.622zm3.302 0v-3.962h.66v3.962zm1.98 0h-.66v-3.962h-.66v-.66h1.32v.66h.661v3.962zm-3.301 0h-.66v-4.622h1.98v.66h-.66v3.962zm5.283 1.321h-.66v-5.943h3.301v.66h.66v3.301h-.66v.661h-1.98v1.321zm1.32-1.981h.661V36.12h-1.32v3.301zm5.284.66h-1.981v-.66h1.98v-1.32h-1.98v-.661h-.66V36.12h.66v-.66h2.641v.66h-1.981v1.32h1.981v.661h.66v1.32h-.66v.661zm7.924 0h-1.98v-.66h-.661V36.12h.66v-.66h2.641v.66h.661v3.301h-.66v.661zm-.66-.66h.66V36.12h-1.32v3.301zm4.623.66h-.66v-.66h-.661v-.66h-.66V35.46h1.32v3.301h1.321V35.46h1.32v3.301h-.66v.66h-.66v.661zm5.283-.66h.66v.66h-2.641v-.66h-.66V36.12h.66v-.66h2.641v.66h.66v1.981h-2.641v1.32h.66zm-.66-1.981h.66V36.12h-1.321v1.32zm3.301 2.641h-.66v-4.622h1.32v.66h.661v.66h-.66v3.302zm1.981-4.622h.66v.66h-1.32v-.66zm7.925 3.962h.66v.66h-1.98v-.66h-.661V36.12h-1.321v-.66h1.32v-1.32h1.322v1.32h1.321v.66h-1.32v3.303zm4.623.66h-.66v-3.962h-1.322v3.962h-1.321V34.14h1.32v1.32h1.983v.66h.661v3.964zm3.962-.66h.66v.66h-2.641v-.66h-.66V36.12h.66v-.66h2.641v.66h.66v1.981h-2.64v1.32h.66zm-.66-1.981h.66V36.12h-1.32v1.32zm6.603 2.641h-.66V34.14h1.32v5.943zm4.623 0h-2.641v-.66h-.66v-1.32h.66v-.661h1.98V36.12h-1.98v-.66h2.641v.66h.66v3.962zm-1.32-.66h.66v-1.32h-1.321v1.32zm5.942 0h.661v.66h-3.962v-1.32h.66v-.66h.66v-.661h.66v-.66h.661v-.661h-2.641v-.66h3.962v1.32h-.66v.66h-.66v.661h-.661v.66h-.66v.66h1.32zm3.963 1.981h-1.981v-.66h1.98v-.66h-1.98v-.661h-.66V35.46h1.32v3.962h1.32v-3.96h1.322v5.282h-.66v.661zm8.585-1.321h-2.641v-.66h-.661V36.12h.66v-.66h1.981v-1.32h1.321v5.943zm-1.32-.66h.66V36.12h-1.322v3.301zm5.282.66h-1.981v-.66h-.66V36.12h.66v-.66h2.641v.66h.66v3.301h-.66v.661zm-.66-.66h.66V36.12h-1.32v3.301zm5.283 1.981h-1.981v-.66h1.98v-.66h-1.98v-.661h-.66V36.12h.66v-.66h3.301v5.282h-.66v.661zm-.66-1.981h.66V36.12h-1.32v3.301z" aria-label="the quick brown fox jumps over the lazy dog" font-family="SunDog" font-size="10.566" style="line-height:1;-inkscape-font-specification:SunDog;text-align:center" text-anchor="middle"/><path fill="#fff" d="M14.623 50.517h-.66v-5.282h-1.32v-.661h3.96v.66h-1.32v5.283zm6.604 0h-.66v-2.641h-1.981v2.641h-1.321v-5.943h1.32v2.641h1.982v-2.641h1.321v5.943zm5.283-.66h.66v.66h-4.622v-5.943h4.622v.66h-3.3v1.981h1.98v.66h-1.98v1.982h1.98zm7.925.66h-2.641v-.66h-.661v-4.622h.66v-.661h3.302v.66h.66v4.622h-.66v.661zm-.66-.66h.66v-.66h-.66v-.66h.66v-3.303h-1.981v4.621h.66zm1.32-.66v-.66h-.66v.66zm4.623 1.32h-2.641v-.66h-.661v-5.283h1.32v5.282h1.982v-5.282h1.321v5.282h-.66v.661zm2.642 0h-.661v-5.943h1.32v5.943zm4.622-.66h.66v.66h-3.301v-.66h-.661v-4.622h.66v-.661h3.302v.66h-2.641v4.622h1.32zm5.283.66h-.66v-.66h-.66v-.66h-.661v-.66h-.66v1.98h-1.322v-5.943h1.32v1.98h.66v-.66h.661v-.66h.66v-.66h1.323v.66h-.66v.66h-.66v.66h-.66v.661h-.661v.66h.66v.661h.66v.66h.661v.66h.66v.661zm7.925 0h-3.302v-5.943h3.961v.66h.661v1.981h-.66v.66h.66v1.982h-.66v.661zm-.66-.66h.66v-1.981h-1.981v1.98h.66zm0-2.642h.66v-1.98h-1.981v1.98h.66zm6.603 3.302h-.66v-.66h-.66v-.66h-.661v-.66h-.66v1.98H62.17v-5.943h3.962v.66h.66v1.981h-.66v.66h-1.32v.661h.66v.66h.66v.66h.66v.661zm-1.32-3.302h.66v-1.98h-1.981v1.98h.66zm5.943 3.302h-2.641v-.66h-.661v-4.622h.66v-.661h3.302v.66h.66v4.622h-.66v.661zm-.66-.66h.66v-4.622h-1.981v4.621h.66zm6.604.66v-.66h-.661v-.66h-.66v-.66h.66v-3.964h1.32v5.943zm-3.963 0v-5.943h1.32v3.962h.66v.66h-.66v.66h-.66v.661zm2.641-1.98h-.66v-.661h.66zm6.604 1.98h-.66v-.66h-.66v-1.32H80v-1.322h-.66v3.301h-1.32v-5.943h1.32v.66h.661v1.32h.66v1.323h.66v-3.301h1.322v5.943zm5.283 0h-.66v-5.943h4.622v.66h-3.301v1.981h1.98v.66h-1.98v2.643zm7.925 0h-2.641v-.66h-.661v-4.622h.66v-.661h3.302v.66h.66v4.622h-.66v.661zm-.66-.66h.66v-4.622h-1.981v4.621h.66zm6.603.66h-.66v-1.98h.66v.66h.66v1.32zm-3.302 0h-.66v-1.32h.66v-.66h.66v1.98zm2.642-1.98h-.66v-.661h.66zm-1.981 0v-.661h.66v.66zm1.32-.661h-.66v-.66h.66zm0-.66v-.661h.66v.66zm-.66 0h-.66v-.661h.66zm1.32-.661v-1.981h1.322v1.32h-.66v.66zm-1.98 0h-.66v-.66h-.661v-1.321h1.32v1.32zm10.566 3.962h-2.641v-.66h-.661v-1.981h1.32v1.98h1.982v-5.282h1.321v5.282h-.66v.661zm5.282 0h-2.64v-.66h-.661v-5.283h1.32v5.282h1.981v-5.282h1.322v5.282h-.66v.661zm3.963-3.302v-.66h.66v.66zm1.981 3.302h-.66v-3.962h-.66v-.66h.66v-.66h.66v-.661h.66v5.943zm-3.302 0h-.66v-5.943h.66v.66h.66v.66h.661v.66h-.66v3.964zm5.283 0h-.66v-5.943h3.962v.66h.66v1.981h-.66v.66h-2.641v2.643zm1.982-3.302h.66v-1.98h-1.981v1.98h.66zm5.943 3.302h-2.641v-.66h-.66v-.66h1.32v.66h1.981v-1.981h-2.641v-.66h-.66v-1.982h.66v-.661h3.301v.66h.66v.66h-1.32v-.66h-1.981v1.981h2.641v.66h.66v1.983h-.66v.661zm8.585 0h-2.641v-.66h-.661v-4.622h.66v-.661h3.302v.66h.66v4.622h-.66v.661zm-.66-.66h.66v-4.622h-1.981v4.621h.66zm4.622.66v-.66h-.66v-.66h-.66v-.66h-.66v-3.964h1.32v3.962h.66v.66h.66v-.66h.661v-3.962h1.32v3.962h-.66v.66h-.66v.66h-.66v.661zm7.264-.66h.66v.66h-4.621v-5.943h4.621v.66h-3.301v1.981h1.981v.66h-1.981v1.982h1.981zm5.283.66h-.66v-.66h-.66v-.66h-.66v-.66h-.661v1.98h-1.32v-5.943h3.96v.66h.66v1.981h-.66v.66h-1.32v.661h.66v.66h.66v.66h.66v.661zm-1.32-3.302h.66v-1.98h-1.981v1.98h.66zm7.924 3.302h-.66v-5.282h-1.32v-.661h3.96v.66h-1.32v5.283zm6.604 0h-.66v-2.641h-1.982v2.641h-1.32v-5.943h1.32v2.641h1.982v-2.641h1.321v5.943zm5.283-.66h.66v.66h-4.622v-5.943h4.622v.66h-3.301v1.981h1.98v.66h-1.98v1.982h1.98zm8.585 0h.66v.66h-4.622v-5.943h1.32v5.282h1.982zm5.283.66h-.66v-2.641h-1.981v2.641h-1.322v-5.282h.66v-.661h3.303v.66h.66v5.283zm-1.32-3.302h.66v-1.98h-1.981v1.98h.66zm6.603 2.642h.66v.66h-4.622v-1.32h.66v-.66h.66v1.32h1.982zm-2.641-1.32v-.661h.66v.66zm.66-.661v-.66h.66v.66zm.66-.66v-.661h.66v.66zm.66-.661v-1.32h-3.301v-.661h4.622v1.32h-.66v.66zm3.963 3.962h-.66v-2.641h-.66v-.66h-.661v-2.643h1.32v2.641h1.322v-2.641h1.321v2.641h-.66v.66h-.66v2.644zm9.245 0h-3.301v-5.943h3.961v.66h.661v4.622h-.66v.661zm-.66-.66h.66v-4.622h-1.98v4.621h.66zm5.943.66h-2.641v-.66h-.66v-4.622h.66v-.661h3.301v.66h.661v4.622h-.66v.661zm-.66-.66h.66v-4.622h-1.98v4.621h.66zm5.944.66h-2.642v-.66h-.66v-4.622h.66v-.661h3.301v.66h.661v.66h-1.32v-.66h-1.981v4.622h1.98v-1.32h-.66v-.66h1.981v1.98h-.66v.661z" aria-label="THE QUICK BROWN FOX JUMPS OVER THE LAZY DOG" font-family="SunDog" font-size="10.566" style="line-height:1;-inkscape-font-specification:SunDog;text-align:center" text-anchor="middle"/><path fill="#fff" d="M18.586 56.989v-.66h.66v.66zm1.32 2.641h-2.641v-.66h-.66v-4.622h.66v-.661h3.301v.66h.661v4.623h-.66v.66zm-.66-.66h.66v-4.622h-1.98v4.622h.66zm5.944 0h.66v.66h-3.962v-.66h1.32v-4.622h-1.32v-.661h2.641v5.283zm5.282 0h.66v.66h-4.621v-2.64h.66v-.66h2.641v-1.982h-1.981v.66h-1.32v-.66h.66v-.661h3.301v.66h.66v1.981h-.66v.66h-2.641v1.982h1.981zm3.963.66h-2.641v-.66h2.64v-1.98h-1.98v-.66h1.98v-1.982h-2.64v-.661h3.301v.66h.66v1.981h-.66v.66h.66v1.982h-.66v.66zm5.943 0h-.66v-2.64h-3.302v-3.302h1.32v2.641h1.982v-2.641h1.321v5.943zm4.622 0h-2.64v-.66h-.661v-.66h1.32v.66H45v-1.98h-3.3v-3.302h4.622v.66H43.02v1.98h2.641v.66h.66v1.982h-.66v.66zm5.284 0h-2.641v-.66h-.661v-4.622h.66v-.661h3.302v.66h.66v.66h-1.32v-.66h-1.981v1.981h2.641v.66h.66v1.982h-.66v.66zm-.66-.66h.66v-1.98h-1.981v1.981h.66zm4.622.66h-.66v-1.32h.66v-1.321h.66v-1.32h.66v-1.322h-3.301v-.661h4.622v1.981h-.66v1.32h-.66v1.323h-.66v1.32zm6.604 0h-2.641v-.66h-.661v-1.98h.66v-.66h-.66v-1.982h.66v-.661h3.302v.66h.66v1.981h-.66v.66h.66v1.982h-.66v.66zm-.66-.66h.66v-1.98h-1.981v1.981h.66zm0-2.641h.66v-1.981h-1.981v1.98h.66zm5.943 3.301h-2.641v-.66h-.66v-.66h1.32v.66h1.981v-1.98h-2.641v-.66h-.66v-1.982h.66v-.661h3.301v.66h.66v4.623h-.66v.66zm-.66-3.301h.66v-1.981h-1.981v1.98h.66zm5.283 1.321h-.66v-.661h.66v-.66h1.32v.66h-.66v.66zm-1.981 0h-.66v-.661h.66v-.66h1.32v.66h-.66v.66zm6.603-1.982h-.66v-1.981h1.32v1.981zm-1.98 0h-.661v-1.981h1.32v1.981zm6.603 3.962h-.66v-1.32h-.66v1.32H77.36v-1.32h-.66v-.66h.66v-1.982h-.66v-.661h.66v-1.32h1.32v1.32h.66v-1.32h1.322v1.32h.66v.661h-.66v1.981h.66v.66h-.66v1.321zm-.66-1.98v-1.982h-.66v1.98zm4.622 1.98h-.66v-.66h-1.32v-.66h2.64v-1.321h-1.98v-.66h-.66v-1.321h.66v-.66h.66v-.661h1.32v.66h1.322v.66h-2.641v1.322h1.981v.66h.66v1.321h-.66v.661h-.66v.66zm2.642 0v-.66h.66v.66zm3.962 0h-.66v-1.32h1.32v1.32zm-3.302-.66v-.66h.66v.66zm.66-.66v-.66h.661v.66zm.661-.66v-.661h.66v.66zm.66-.661v-.66h.66v.66zm.66-.66v-.66h.661v.66zm-2.64 0h-.661v-1.321h1.32v1.32zm3.301-.66v-.661h.66v.66zm4.623 3.301v-.66h.66v.66zm-1.981 0h.66v.66h-1.32v-.66Zm.66 0v-.66h.66v.66zm-1.32 0h-.661v-1.98h.66v1.32zm2.64-.66h-.66v-.66h.66zm0-.66v-.661h.661v.66zm-.66 0h-.66v-.661h.66zm-.66-.661h-1.32v-.66h1.32zm0-.66v-.66h.66v.66zm-1.32 0h-.661v-.66h.66zm1.32-.66h-1.32v-.661h1.32zm3.301-.001v-.66h-.66v-1.321h1.322v1.981zm2.642 3.962h-.66v-.66h-.66v-4.622h.66v-.661h1.32v.66h-.66v4.623h.66v.66zm1.982 0h-.66v-.66h.66v-4.622h-.66v-.661h1.32v.66h.66v4.623h-.66v.66zm3.301-1.32v-.66h.66v.66zm-1.32 0v-.66h.66v.66zm1.32-.66h-.66v-.661h.66zm0-.661v-.66h.66v.66zm-.66 0h-.66v-.66h.66zm3.302 1.981v-1.32h-1.32v-.661h1.32v-1.32h.66v1.32h1.321v.66h-1.32v1.321zm2.642 1.981v-.66h.66v.66zm.66-.66v-.66h-.66V58.31h1.32v1.98zm3.962-3.302h.66v.66h-3.301v-.66h1.98zm1.981 2.641h-.66v-1.32h1.32v1.32zm1.321 0v-1.32h.66v1.32zm.66-1.32v-1.321h.66v1.32zm.66-1.321v-1.32h.661v1.32zm.661-1.32v-1.322h.66v1.32zm1.981 3.961h-.66v-1.32h1.32v1.32zm0-3.301h-.66v-1.321h1.32v1.32zm1.321 4.622v-.66h.66v.66zm.66-.66v-.66h-.66V58.31h1.32v1.98zm0-3.962h-.66v-1.321h1.32v1.32zm3.302 3.301v-.66h.66v.66zm0-.66h-.66v-.66h.66zm-.66-.66h-.66v-.66h.66zm-.66-.66h-.66v-.661h.66zm0-.661v-.66h.66v.66zm.66-.66v-.66h.66v.66zm.66-.66v-.661h.66v.66zm3.962 1.981h.661v.66h-3.301v-.66h1.98zm0-1.982h.661v.66h-3.301v-.66h1.98zm1.321 3.962v-.66h.66v.66zm.66-.66v-.66h.661v.66zm.661-.66v-.66h.66v.66zm.66-.66v-.661h.661v.66zm0-.661h-.66v-.66h.66zm-.66-.66h-.66v-.66h.66zm-.66-.66h-.66v-.661h.66zm4.623 3.961h-.66v-1.32h1.32v1.32zm0-1.98h-.66v-.661h.66v-.66h.66v-1.981h-1.32v.66h-1.322v-.66h.66v-.661h2.641v.66h.66v1.981h-.66v.66h-.66v.661zm5.943 1.32h.66v.66h-3.301v-.66h-.66v-4.622h.66v-.661h3.301v.66h.66v1.981h-.66v.66h-1.98v-1.98h1.32v-.66h-1.981v4.622h1.32zm3.962 0h.66v.66h-2.64v-5.943h2.64v.66h-1.32v4.623zm3.302.66v-1.32h.66v1.32zm0-1.32h-.66v-1.321h.66v.66zm-.66-1.321h-.66v-1.32h.66v.66zm-.66-1.32h-.661v-1.322h.66v.66zm4.622 3.961h-1.981v-.66h1.32v-4.622h-1.32v-.661h2.641v5.943zm3.962-3.962v-.66h.66v.66zm-2.641 0v-.66h.66v.66zm2.641-.66h-.66v-.66h.66zm-1.98 0v-.66h.66v.66zm1.32-.66h-.66v-.661h.66zm5.283 4.622h.66v.66h-3.961v-.66h2.64zm1.321-3.302v-1.981h1.32v1.32h-.66v.661zm4.622 3.302h.66v.66h-1.98v-.66h-.66v-1.98h-.661v-.66h.66v-1.982h.66v-.661h1.982v.66h-1.32v4.623zm1.321.66v-5.943h.66v5.943zm2.642 0h-1.321v-.66h1.32v-4.622h-1.32v-.661h1.981v.66h.66v1.981h.66v.66h-.66v1.982h-.66v.66zm5.283-1.98h-.66v-.661h.66v-.66h1.32v.66h-.66v.66zm-1.981 0h-.66v-.661h.66v-.66h1.32v.66h-.66v.66zm4.623 1.98h-.661v-3.96h1.32v3.96zm0-4.622h-.661v-1.321h1.32v1.32zm3.301 4.622v-.66h-1.32v-.66h-.66v-3.302h.66v-.66h1.32v-.661h.66v.66h.661v.66h-1.981v3.303h1.981v.661h-.66v.66zm5.283 0h-3.301v-.66h.66v-1.98h-.66v-.66h.66v-1.982h.66v-.661h2.641v.66h.661v.66h-1.32v-.66h-1.322v1.981h1.32v.66h-1.32v1.982h1.32v-.66h1.322v.66h-.66v.66zm4.623-1.32h-.66v-.66h-.66v.66h-1.322v-1.321h.66v-.66h-.66v-1.321h1.32v.66h.66v-.66h1.323v1.32h-.66v.66h.66v1.322zm-.66-1.321v-.66h-.66v.66zm3.962 2.641h-.66v-.66h-1.322v-.66h1.32v-.66h-1.32v-.661h.66v-.66h-.66v-2.642h1.32v2.641h1.323v-2.641h1.32v2.641h-.66v.66h.66v.661h-1.32v.66h1.32v.661h-1.32v.66zm2.641 0v-2.64h.66v2.641zm0-3.301v-2.642h.66v2.641zm3.963 3.301h-1.981v-.66h-.66v-.66h1.32v.66h1.32v-1.32h-1.98v-.661h-.66v-.66h.66v-.66h-.66v-1.322h.66v-.661h2.641v.66h.66v.66h-1.32v-.66h-1.321v1.322h1.981v.66h.66v.66h-.66v.661h.66v1.321h-.66v.66zm-.66-2.641h.66v-.66h-1.321v.66zm3.962-1.981v-1.321h.66v1.32zm-1.321 0v-1.321h.66v1.32zm5.943 3.962h.66v.66h-3.301v-.66h1.98zm.66 0v-3.3h.661v3.301zm-3.301 0h-.66v-3.3h.66v2.64zm1.98-1.32h.661v.66h-1.98v-1.981h1.98v.66h-1.32v.66zm1.322-1.982h-3.302v-.66h3.301z" aria-label="0123456789~&quot;#$%&amp;'()*+,-./:;&lt;=&gt;?@[\]^_`{|}~¡¢£¤¥¦§¨©" font-family="SunDog" font-size="10.566" style="line-height:1;-inkscape-font-specification:SunDog;text-align:center" text-anchor="middle"/><path fill="#fff" d="M13.963 23.442H10v-5.943h1.32v5.282h.66V20.14h.661v2.641h.66V17.5h1.322v5.942zm5.283 0h-.66V20.14h-.66v.66h-.661v.66h-.66v1.981h-1.322V17.5h1.32v3.3h.66v-.66h.661v-.66h.66v-1.982h1.323v5.942zm1.981 0h-.66v-5.943h3.961v.66h.661v1.98h-.66v.661h-2.641v2.641zm1.981-3.302h.66v-1.981h-1.98v1.98h.66zm5.944 3.302H26.51v-.66h-.661v-4.623h.66v-.66h3.302v.66h.66v4.622h-.66v.66zm-.66-.66h.66v-4.623H27.17v4.622h.66zm6.603.66h-.66v-.66h-.66v-.661h-.661v-.66h-.66v1.98h-1.321V17.5h1.32v1.98h.66v-.66h.661v-.66h.66v-.66h1.322v.66h-.66v.66h-.66v.66h-.66v.66h-.661v.661h.66v.66h.66v.66h.661v.661h.66v.66zm5.283 0h-.66V20.8h-1.981v2.64h-1.321v-5.28h.66v-.66h3.302v.66h.66v5.282zm-1.32-3.302h.66v-1.981h-1.981v1.98h.66zm6.603 3.302h-.66V21.46h-.66v.66h-.661v.66h-.66v.66h-1.321v-.66h.66v-.66h.66v-.66h.661v-.66h-1.32v-.661h-.661v-1.98h.66v-.66h3.962v5.942zm-1.32-3.302H45v-1.981h-1.98v1.98h.66zm8.584 3.302h-2.641v-.66h2.641V20.8h-1.98v-.661h1.98v-1.98h-2.641v-.66h3.301v.66h.661v4.622h-.66v.66zm5.944 0h-.66v-5.283h-1.322v5.282h-1.98v-.66h.66V18.16h.66v-.66h3.303v5.942zm5.283-.661h.66v.66H60.19V17.5h4.622v.66h-3.301v1.98h1.98v.661h-1.98v1.981h1.98zm5.283.661h-.66v-.66h-.66v-.661h-.661v-.66h-.66v1.98h-1.322V17.5h1.32v1.98h.66v-.66h.661v-.66h.66v-.66h1.322v.66h-.66v.66h-.66v.66h-.66v.66h-.661v.661h.66v.66h.66v.66h.66v.661h.661v.66zm3.302 0h-.66v-5.283h-1.322v-.66h3.962v.66h-1.32v5.282zm3.302 0h-.66v-5.943h3.961v.66h.661v1.98h-.66v.661H76.7v2.641zm1.98-3.302h.661v-1.981H76.7v1.98h.66zm6.605 3.302h-.66V20.14h-.661v.66h-.66v.66h-.66v1.981h-1.322V17.5h1.32v3.3h.66v-.66h.66v-.66h.661v-1.982h1.322v5.942zm3.302.66v-.66h-1.321v-.66h-.66v-4.623h.66v-.66h3.301v.66h.661v4.622h-.66v.66h-1.321v.661zm1.32-1.32v-4.623h-.66v4.622zm-1.32 0v-4.623h-.66v4.622zm7.264.66h-.66V20.14h-.661v.66h-.66v.66h-.66v1.981h-1.322V17.5h1.32v3.3h.66v-.66h.661v-.66h.66v-1.982h1.322v5.942zm5.283 0h-.66v-.66h-.661v-.661h-.66v-.66h-.66v1.98H96.51V17.5h1.32v1.98h.66v-.66h.661v-.66h.66v-.66h1.322v.66h-.66v.66h-.66v.66h-.661v.66h-.66v.661h.66v.66h.66v.66h.66v.661h.661v.66zm5.283 0h-.66V20.8h-1.982v2.64h-1.321v-5.28h.66v-.66h3.301v.66h.661v5.282zm-1.32-3.302h.66v-1.981h-1.982v1.98h.66zm6.603 3.962v-.66h-3.962v-5.943h1.32v5.282h1.981V17.5h1.322v6.603zm5.283-.66h-.66V20.14h-.66v.66h-.661v.66h-.66v1.981h-1.321V17.5h1.32v3.3h.66v-.66h.661v-.66h.66v-1.982h1.322v5.942zm5.283 0h-.66V21.46h-.66v.66h-.661v.66h-.66v.66h-1.322v-.66h.66v-.66h.66v-.66h.66v-.66h-1.32v-.661h-.66v-1.98h.66v-.66h3.962v5.942zm-1.32-3.302h.66v-1.981h-1.981v1.98h.66zm9.245 3.302h-1.321v-.66h-.66v.66h-1.322v-5.943h1.32v.66h.66v-.66h1.983v.66h.66v4.622h-.66v.66zm0-.66v-4.623h-.66v4.622zm3.962.66V21.46h-.66v1.98h-1.322v-1.32h.66v-.66h.66v-.66h.66v-.661h-.66v-.66h.66v-1.981h.661v1.98h.66v.66h-.66v.661h.66v.66h.661v.66h.66v1.323h-1.32v-1.98h-.66v1.98zm1.32-3.963V17.5h1.322v1.32h-.66v.66zm-1.98 0h-.66v-.66h-.661v-1.32h1.32v1.32zm7.924 3.963h-.66V20.8h-1.981v2.64h-1.321V17.5h1.32v2.64h1.982V17.5h1.321v5.942zm5.284 0h-.661v-.66h-.66v.66h-2.643v-5.943h1.32v2.64h1.323v.661h.66v-3.3h1.321v5.942zm-1.982-.66V20.8h-.66v1.98zm7.264.66h-.66V21.46h.66v.66h.66v1.32zm-3.302 0h-.66V22.12h.66v-.66h.66v1.98zm2.642-1.982h-.66v-.66h.66zm-1.981 0v-.66h.66v.66zm1.32-.66h-.66v-.66h.66zm0-.66v-.66h.66v.66zm-.66 0h-.66v-.66h.66zm1.32-.66v-1.982h1.322v1.32h-.66v.66zm-1.98 0h-.66v-.661h-.661v-1.32h1.32v1.32zm7.924 3.962h-.66v-5.943h3.962v.66h-2.641v5.282zm6.604 0h-1.981v-.66h1.981V20.8h-1.981v-.661h-.66v-2.64h1.32v2.64h1.322V17.5h1.32v5.282h-.66v.66zm5.283 0h-3.301v-5.943h3.96v.66h-2.641v1.98h2.641v.661h.66v1.981h-.66v.66zm-.66-.66h.66V20.8h-1.981v1.98h.66zm6.603-.001h.66v.66h-4.621V17.5h4.621v.66h-3.301v1.98h1.981v.661h-1.981v1.981h1.981zm1.982.661h-.66v-5.943h3.96v.66h.66v1.98h-.66v.661h-2.641v2.641zm1.98-3.302h.661v-1.981h-1.981v1.98h.66zm6.605 3.302h-.66V20.8h-1.982v2.64h-1.32V17.5h1.32v2.64h1.981V17.5h1.321v5.942zm5.283 0h-.66V20.14h-.661v.66h-.66v.66h-.66v1.981h-1.322V17.5h1.32v3.3h.66v-.66h.66v-.66h.661v-1.982h1.322v5.942zm3.302-5.283v-.66h.66v.66zm1.98 5.283h-.66V20.14h-.66v.66h-.66v.66h-.66v1.981h-1.322V17.5h1.32v3.3h.66v-.66h.66v-.66h.661v-1.982h1.322v5.942zm9.246.66h-.66v-.66h-2.641v.66h-1.322v-1.32h.66v-3.964h.66v-.66h.66v-.66h2.644v5.282h.66v1.322zm-1.981-1.32h.66v-4.623h-.66v.66h-.66v3.962zm7.264.66h-.66V20.8h-1.981v2.64h-1.321v-5.28h.66v-.66h3.302v.66h.66v5.282zm-1.32-3.302h.66v-1.981h-1.981v1.98h.66zm5.943 2.641h.66v.66h-3.301v-.66h-.661V18.16h.66v-.66h3.303v.66h-2.641v4.622h1.32zm3.301.661h-.66v-5.283h-1.32v-.66H220v.66h-1.32v5.282zM15.614 27.008v-.66h.66v.66zm1.98 3.302h-.66v-3.962h-.66v-.661h.66v-.66h.66v-.66h.661v5.942zm-3.301 0h-.66v-5.943h.66v.66h.66v.66h.66v.66h-.66v3.963zm7.925 0h-2.641v-.66h-.661v-4.623h.66v-.66h3.302v.66h.66v4.622h-.66v.66zm-.66-.66h.66v-4.623h-1.981v4.622h.66zm6.603 1.32h-.66v-.66h-3.302v-5.943h1.32v5.282h.66v-2.641h.661v2.641h.66v-5.282h1.322v6.603zm5.283-.66h-.66v-2.641h-1.981v2.64h-1.321v-5.942h1.32v2.64h1.982v-2.64h1.321v5.942zm5.283 0h-.66v-.66h-.66v.66h-2.643v-5.943h1.32v2.64h1.323v.661h.66v-3.301h1.321v5.942zm-1.981-.66v-1.982h-.66v1.98zm5.284-4.623v-.66h.66v.66zm1.98 5.283h-.66v-3.302h-.66v.66h-.66v.66h-.661v1.982h-1.321v-5.942h1.32v3.301h.661v-.66h.66v-.66h.66v-1.983h1.321v5.942zm6.604 0h-.66v-5.283h-1.321v-.66h3.962v.66h-1.32v5.282zm5.943 0h-2.641v-.66h-.66v-4.623h.66v-.66h3.301v.66h.661v4.622h-.66v.66zm-.66-.66h.66v-4.623h-1.98v4.622h.66zm6.603.66h-.66v-5.283h-1.32v5.282h-1.981v-.66h.66v-4.622h.66v-.66h3.302v5.942zm5.284 0h-.66v-2.641h-3.302v-3.303h1.32v2.64h1.981v-2.64h1.322v5.942zm4.623 0h-2.641v-.66h-.661v-4.623h.66v-.66h3.302v.66h.66v4.622h-.66v.66zm-.66-.66h.66v-4.623h-1.981v4.622h.66zm6.603.66h-.66v-.66h-.66v-.661h-.661v-.66h-.66v1.98h-1.322v-5.942h1.32v1.98h.66v-.66h.661v-.66h.66v-.66h1.322v.66h-.66v.66h-.66v.66h-.66v.66h-.661v.661h.66v.66h.66v.66h.661v.661h.66v.66zm8.585 0h-.66v-5.283h-1.981v5.282h-1.322v-5.942h4.622v5.942zm4.623 0h-2.641v-.66h-.661v-4.623h.66v-.66h3.302v.66h.66v4.622h-.66v.66zm-.66-.66h.66v-4.623h-1.981v4.622h.66zm7.263 1.32h-.66v-.66H94.86v.66h-1.321v-1.32h.66v-3.964h.66v-.66h.66v-.66h2.643v5.282h.66v1.322zm-1.98-1.32h.66v-4.623h-.66v.66h-.661v3.962zm5.943.66h-2.641v-5.283h-.661v-.66h1.981v2.64h1.981v.661h.66v1.981h-.66v.66zm-.66-.66h.66v-1.982h-1.321v1.98zm5.282-4.623v-.66h.66v.66zm-1.32 0v-.66h.66v.66zm2.641 4.622h.66v.66h-4.622v-4.622h4.622v.66h-3.301v1.321h1.98v.66h-1.98v1.322h1.98zm3.303-2.641v-.66h.66v.66zm1.98 3.302h-.66v-3.962h-.66v-.661h.66v-.66h.66v-.66h.66v5.942zm-3.302 0h-.66v-5.943h.66v.66h.66v.66h.661v.66h-.66v3.963zm7.265 0h-1.981v-.66h1.98v-1.982h-1.98v-.661h-.661v-2.64h1.32v2.64h1.322v-2.64h1.321v5.282h-.66v.66zm8.584-.66h.66v.66h-3.301v-.66h-.66v-4.623h.66v-.66h3.301v.66h-2.64v4.622h1.32zm5.283 0h.66v.66h-4.621v-5.943h4.621v.66h-3.301v1.98h1.981v.661h-1.981v1.981h1.981zm5.284.66h-.66v-5.283h-1.322v5.282h-1.981v-.66h.66v-4.622h.66v-.66h3.302v5.942zm3.962 0h-2.641v-5.943h1.32v2.64h1.981v.661h.66v1.981h-.66v.66zm-.66-.66h.66v-1.982h-1.32v1.98zm5.943 0h.66v.66h-3.301v-.66h-.661v-4.623h.66v-.66h3.303v.66h-2.641v4.622h1.32zm5.283.66h-.66v-.66h-.66v-.661h-.661v-.66h-.66v1.98h-1.321v-5.942h1.32v1.98h.66v-.66h.661v-.66h.66v-.66h1.322v.66h-.66v.66h-.66v.66h-.66v.66h-.661v.661h.66v.66h.66v.66h.661v.661h.66v.66zm4.623 0h-2.641v-.66h-.661v-4.623h.66v-.66h3.302v.66h.66v4.622h-.66v.66zm-.66-.66h.66v-4.623h-1.981v4.622h.66zm3.301.66h-.66v-5.943h3.962v.66h-2.641v5.282zm7.264 0h-2.641v-.66h-.66v-4.623h.66v-.66h3.301v.66h.661v4.622h-.66v.66zm-.66-.66h.66v-4.623h-1.98v4.622h.66zm9.906.66h-.66v-1.981h.66v.66h.66v1.32zm-3.302 0h-.66v-1.321h.66v-.66h.66v1.98zm2.641-1.982h-.66v-.66h.66zm-1.98 0v-.66h.66v.66zm1.32-.66h-.66v-.66h.66zm0-.66v-.66h.66v.66zm-.66 0h-.66v-.66h.66zm1.32-.66v-1.982h1.321v1.32h-.66v.66zm-1.98 0h-.661v-.661h-.66v-1.32h1.32v1.32zm7.263 3.962h-2.641v-.66h-.66v-4.623h.66v-.66h3.301v.66h.661v4.622h-.66v.66zm-.66-.66h.66v-4.623h-1.98v4.622h.66zm5.943.66h-3.301v-.66h3.301v-1.982h-1.98v-.661h1.98v-1.98h-3.301v-.66h3.96v.66h.661v1.98h-.66v.661h.66v1.981h-.66v.66zm5.944 0h-.66v-1.981h-.66v.66h-.661v.66h-.66v.66h-1.322v-.66h.66v-.66h.66v-.66h.66v-.66h-1.32v-.661h-.66v-1.981h.66v-.66h3.962v5.942zm-1.32-3.302h.66v-1.981h-1.982v1.98h.66zm4.622-1.981v-.66h.66v.66zm1.98 5.283h-.66v-3.302h-.66v.66h-.66v.66h-.66v1.982h-1.322v-5.942h1.32v3.301h.66v-.66h.661v-.66h.66v-1.983h1.323v5.942zm4.623-.66h.66v.66h-3.301v-.66h-.66v-4.623h.66v-.66h3.301v.66h-2.64v4.622h1.32zm3.302.66h-.66v-5.283h-1.32v-.66h3.96v.66h-1.32v5.282zm5.944 0h-3.302v-5.943h3.962v.66h.66v1.98h-.66v.661h.66v1.981h-.66v.66zm-.66-.66h.66v-1.982h-1.981v1.98h.66zm0-2.642h.66v-1.981h-1.981v1.98h.66zm6.604 3.302h-.661v-2.641h-1.981v2.64h-1.321v-5.282h.66v-.66h3.303v.66h.66v5.282zm-1.321-3.302h.66v-1.981h-1.981v1.98h.66z" aria-label="ШИРОКАЯ ЭЛЕКТРИФИКАЦИЯ ЮЖНЫХ ГУБЕРНИЙ ДАСТ МОЩНЫЙ ТОЛЧОК ПОДЪЁМУ СЕЛЬСКОГО ХОЗЯЙСТВА" font-family="SunDog" font-size="10.566" style="line-height:.6;-inkscape-font-specification:SunDog;text-align:center" text-anchor="middle"/><g style="line-height:.6;-inkscape-font-specification:SunDog;text-align:center" text-anchor="middle"><path fill="#fff" d="M8.679 79.992H4.717v-3.301h1.32v2.64h.66v-1.32h.66v1.32h.661v-2.64H9.34v3.301zm5.283 0h-.66v-1.98h-.661v.66h-.66v.66h-.66v.66H10v-3.301h1.32v1.98h.66v-.66h.66v-.66h.661v-.66h1.321v3.301zm1.981 0h-.66v-3.301h3.96v.66h.661v.66h-.66v.66h-2.64v1.322zm1.981-1.98h.66v-.661h-1.98v.66h.66zm5.943 1.98h-2.641v-.66h-.66V77.35h.66v-.66h3.301v.66h.661v1.98h-.66v.661zm-.66-.66h.66V77.35h-1.98v1.98h.66zm6.603.66h-.66v-.66h-.66v-.66h-1.32v1.32h-1.322v-3.301h1.32v1.32h1.322v-.66h.66v-.66h1.321v.66h-.66v.66h-.66v.66h.66v.66h.66v.661zm5.284 0h-3.302v-.66h-.66v-.66h.66v-.66h2.641v-.661h-2.641v-.66h3.301v.66h.661v2.641zm-1.32-.66h.66v-.66h-1.982v.66h.66zm6.603.66h-.66v-1.32h-1.981v1.32h-1.322v-1.32h.66v-.66h-.66v-.661h.66v-.66h3.962v3.301zm-1.32-1.98h.66v-.661h-1.981v.66h.66zm11.226 1.98H46.98v-.66h3.301v-.66h-1.98v-.66h1.98v-.661H46.98v-.66h3.962v.66h.66v1.98h-.66v.661zm5.943 0h-.66v-2.641h-1.321v2.641h-1.981v-.66h.66V77.35h.66v-.66h3.303v3.301zm4.623-.66h.66v.66h-3.301v-.66h-.661V77.35h.66v-.66h3.303v.66h.66v1.32h-3.301v.66h1.32zm-.66-1.32h.66v-.661h-1.981v.66h.66zm6.603 1.98h-.66v-.66h-.66v-.66H64.15v1.32h-1.32v-3.301h1.32v1.32h1.322v-.66h.66v-.66h1.321v.66h-.66v.66h-.66v.66h.66v.66h.66v.661zm3.302 0h-.66v-2.641h-1.321v-.66h3.962v.66h-1.32v2.641zm3.962 0h-.66v-3.301h3.962v.66h.66v.66h-.66v.66h-2.641v1.322zm1.982-1.98h.66v-.661h-1.981v.66h.66zm6.603 1.98h-.66v-1.98h-.66v.66h-.66v.66H80v.66h-1.321v-3.301h1.32v1.98h.661v-.66h.66v-.66h.66v-.66h1.322v3.301zm3.302.661v-.66h-1.32v-.661h-.66V77.35h.66v-.66h1.32v-.661h.66v.66h1.322v.66h.66v1.983h-.66v.661h-1.32v.66zm1.321-1.321V77.35h-.66v1.98zm-1.32 0V77.35h-.661v1.98zm7.263.66h-.66v-1.98h-.66v.66h-.66v.66h-.661v.66h-1.32v-3.301h1.32v1.98h.66v-.66h.66v-.66h.661v-.66h1.32v3.301zm5.283 0h-.66v-.66h-.66v-.66h-1.321v1.32h-1.32v-3.301h1.32v1.32h1.32v-.66h.661v-.66h1.32v.66h-.66v.66h-.66v.66h.66v.66h.66v.661zm5.284 0h-3.302v-.66h-.66v-.66h.66v-.66h2.641v-.661h-2.641v-.66h3.301v.66h.66v2.641zm-1.321-.66h.66v-.66h-1.981v.66h.66zm6.604 1.321v-.66h-3.962V76.69h1.32v2.64h1.981v-2.64h1.321v3.961zm5.283-.661h-.66v-1.98h-.661v.66h-.66v.66h-.66v.66h-1.322v-3.301h1.32v1.98h.66v-.66h.66v-.66h.661v-.66H115v3.301zm5.283 0h-.66v-1.32h-1.982v1.32h-1.321v-1.32h.66v-.66h-.66v-.661h.66v-.66h3.962v3.301zm-1.321-1.98h.66v-.661h-1.98v.66h.66zm11.226 1.98h-1.32v-.66h-.66v.66h-1.322v-3.301h1.32v.66h.66v-.66h1.983v.66h.661v1.98h-.66v.661zm0-.66V77.35h-.66v1.98zm3.962.66v-.66h-.66v.66h-1.32v-.66h.66v-.66h.66v-.66h-.66v-.661h-.66v-.66h1.32v.66h.66v-.66h.661v.66h.66v-.66h1.321v.66h-.66v.66h-.66v.66h.66v.66h.66v.661h-1.32v-.66h-.66v.66zm7.265 0h-.66v-1.32h-1.982v1.32h-1.321v-3.301h1.32v1.32h1.982v-1.32h1.321v3.301zm5.283 0h-.66v-.66h-.66v.66h-2.643v-3.301h1.32v1.32h1.322v.66h.66v-1.98h1.322v3.301zm-1.981-.66v-.66h-.66v.66zm7.264.66h-.66v-.66H150v-.66h-.661v.66h-.66v.66h-1.321v-.66h.66v-.66h.66v-.66h-.66v-.661h-.66v-.66h1.32v.66h.66v.66H150v-.66h.66v-.66h1.322v.66h-.66v.66h-.66v.66h.66v.66h.66v.661zm7.264 0h-.66v-3.301h4.622v.66h-3.301v2.641zm7.925.661h-2.641v-.66h2.64v-.661h-2.64v-.66h-.661V76.69h1.32v1.98h1.982v-1.98h1.32v3.301h-.66v.66zm5.283-.661h-3.303v-3.301h4.622v.66h-3.301v.66h2.641v.66h.66v.66h-.66v.661zm-.66-.66h.66v-.66h-1.981v.66h.66zm5.943 0h.66v.66h-3.301v-.66h-.661V77.35h.66v-.66h3.302v.66h.66v1.32h-3.301v.66h1.32zm-.66-1.32h.66v-.661h-1.981v.66h.66zm3.301 1.98h-.66v-3.301h3.962v.66h.66v.66h-.66v.66h-2.641v1.322zm1.982-1.98h.66v-.661h-1.981v.66h.66zm6.603 1.98h-.66v-1.32h-1.981v1.32h-1.321v-3.301h1.32v1.32h1.983v-1.32h1.32v3.301zm5.283 0h-.66v-1.98h-.66v.66h-.66v.66h-.661v.66h-1.32v-3.301h1.32v1.98h.66v-.66h.66v-.66h.661v-.66h1.32v3.301zm5.283 0h-.66v-1.98h-.66v.66h-.66v.66h-.661v.66h-1.32v-3.301h1.32v1.98h.66v-.66h.66v-.66h.661v-.66h1.32v3.301zm-1.32-4.622h.66v.66h-1.981v-.66h.66zm11.887 5.283h-.66v-.66h-1.983v.66h-1.32v-1.321h.66V77.35h.66v-.66h2.641v2.64h.66v1.323zm-1.321-1.321V77.35h-.66v1.98zm6.604.66h-3.302v-.66h-.66v-.66h.66v-.66h2.641v-.661h-2.641v-.66h3.301v.66h.661v2.641zm-1.321-.66h.66v-.66h-1.98v.66h.66zm6.603 0h.661v.66h-3.962v-.66h-.66V77.35h.66v-.66h3.962v.66h-3.301v1.98h1.98zm3.303.66h-.66v-2.641h-1.322v-.66h3.961v.66h-1.32v2.641zM9.339 85.54v-.66h.66v.66Zm1.981 1.32h-.66v-1.98H10v-.661h.66v-.66h1.32v3.301zm-3.302 0h-.66v-3.3h1.32v.66h.661v.66h-.66v1.981zm7.925 0h-2.641v-.66h-.661v-1.981h.66v-.66h3.302v.66h.66v1.98h-.66v.661zm-.66-.66h.66v-1.981h-1.981v1.98h.66zm6.603 1.32v-.66h-3.962v-3.3h1.32v2.64h.661v-1.32h.66v1.32h.66v-2.64h1.322v3.96zm5.284-.66h-.661v-1.32h-1.981v1.32h-1.321v-3.3h1.32v1.32h1.982v-1.32h1.321v3.301zm5.282 0h-.66v-.66h-.66v.66H28.49v-3.3h1.32v1.32h1.32v.66h.661v-1.98h1.32v3.301zm-1.98-.66v-.66h-.661v.66zm7.263.66h-.66v-1.98h-.66v.66h-.66v.66h-.661v.66h-1.32v-3.3h1.32v1.98h.66v-.66h.66v-.66h.661v-.66h1.32v3.301zm-1.32-4.622h.66v.66h-1.981v-.66h.66zm9.905 4.622h-.66v-2.64h-1.32v-.66h3.96v.66h-1.32v2.641zm6.604 0h-2.641v-.66h-.66v-1.981h.66v-.66h3.301v.66h.66v1.98h-.66v.661zm-.66-.66h.66v-1.981h-1.981v1.98h.66zm6.604.66h-.66v-2.64h-1.322v2.641h-1.981v-.66h.66V84.22h.66v-.66h3.302v3.301zm5.282 0h-.66v-1.32h-3.3v-1.982h1.32v1.32h1.981v-1.32h1.32v3.301zm4.623 0h-2.641v-.66h-.66v-1.981h.66v-.66h3.301v.66h.661v1.98h-.66v.661zm-.66-.66h.66v-1.981h-1.98v1.98h.66zm6.604.66h-.66v-.66h-.661v-.66h-1.32v1.32h-1.322v-3.3h1.32v1.32h1.322v-.66h.66v-.66h1.321v.66h-.66v.66h-.66v.66h.66v.66h.66v.661zm10.566 0h-.66v-2.64h-1.982v2.641H81.32V83.56h4.622v3.301zm4.623 0h-2.642v-.66h-.66v-1.981h.66v-.66h3.301v.66h.661v1.98h-.66v.661zm-.66-.66h.66v-1.981h-1.981v1.98h.66zm6.603 1.32h-.66v-.66h-1.981v.66h-1.322V86.2h.66v-1.981h.66v-.66h2.644v2.64h.66v1.321zm-1.32-1.32v-1.981h-.661v1.98zm5.943.66H97.17v-2.64h-.66v-.66h1.98v1.32h2.642v.66h.66v.66h-.66v.661zm-.66-.66h.66v-.66H98.49v.66h.66zm5.282-3.302v-.66h.66v.66zm-1.32 0v-.66h.66v.66zm1.98 3.302h.661v.66h-3.301v-.66h-.661v-1.981h.66v-.66h3.302v.66h.66v1.32h-3.301v.66h1.32zm-.66-1.32h.66v-.661h-1.98v.66h.66zm4.623.66v-.66h.66v.66zm1.981 1.32h-.66v-1.98h-.66v-.661h.66v-.66h1.32v3.301zm-3.302 0h-.66v-3.3h1.32v.66h.661v.66h-.66v1.981zm7.924.66h-2.64v-.66h2.64v-.66h-2.64v-.66h-.661v-1.982h1.32v1.98h1.981v-1.98h1.322v3.301h-.66v.66zm11.227-1.32h.66v.66h-3.96v-.66h-.661v-1.981h.66v-.66h3.961v.66h-3.301v1.98h1.98zm4.623 0h.66v.66h-3.301v-.66h-.661v-1.981h.66v-.66h3.302v.66h.66v1.32h-3.301v.66h1.32zm-.66-1.32h.66v-.661h-1.981v.66h.66zm6.603 1.98h-.66v-2.64h-1.32v2.641h-1.982v-.66h.66V84.22h.66v-.66h3.301v3.301zm4.623 0h-3.301v-3.3h1.32v1.32h2.641v.66h.66v.66h-.66v.661zm-.66-.66h.66v-.66h-1.981v.66h.66zm6.604 0h.66v.66h-3.962v-.66h-.66v-1.981h.66v-.66h3.961v.66h-3.301v1.98h1.981zm5.283.66h-.66v-.66h-.661v-.66h-1.322v1.32H150v-3.3h1.32v1.32h1.32v-.66h.661v-.66h1.32v.66h-.66v.66h-.66v.66h.66v.66h.66v.661zm4.622 0h-2.641v-.66h-.66v-1.981h.66v-.66h3.301v.66h.66v1.98h-.66v.661zm-.66-.66h.66v-1.981h-1.981v1.98h.66zm3.302.66h-.66v-3.3h4.622v.66h-3.301v2.641zm7.924 0h-2.641v-.66h-.66v-1.981h.66v-.66h3.301v.66h.661v1.98h-.66v.661zm-.66-.66h.66v-1.981h-1.98v1.98h.66zm11.887.66h-.66v-.66h-.661v-.66h-.66v.66h-.66v.66h-1.322v-.66h.66v-.66h.66v-.66h-.66v-.661h-.66v-.66h1.32v.66h.66v.66h.661v-.66h.66v-.66h1.322v.66h-.66v.66h-.66v.66h.66v.66h.66v.661zm4.622 0h-2.641v-.66h-.66v-1.981h.66v-.66h3.301v.66h.661v1.98h-.66v.661zm-.66-.66h.66v-1.981h-1.98v1.98h.66zm5.943.66h-3.301v-.66h3.301v-.66h-1.98v-.66h1.98v-.661h-3.301v-.66h3.961v.66h.661v.66h-.66v.66h.66v.66h-.66v.661zm5.944 0h-.66v-1.32h-1.981v1.32h-1.322v-1.32h.66v-.66h-.66v-.661h.66v-.66h3.962v3.301zm-1.32-1.98h.66v-.661h-1.981v.66h.66zm6.603 1.98h-.66v-1.98h-.66v.66h-.661v.66h-.66v.66h-1.322v-3.3h1.32v1.98h.66v-.66h.661v-.66h.66v-.66h1.322v3.301zm-1.32-4.622h.66v.66h-1.981v-.66h.66zm6.603 3.962h.66v.66h-3.961v-.66h-.661v-1.981h.66v-.66h3.962v.66h-3.301v1.98h1.98zm3.302.66h-.66v-2.64h-1.321v-.66h3.962v.66h-1.32v2.641zm6.604 0h-3.302v-3.3h3.962v.66h.66v.66h-.66v.66h.66v.66h-.66v.661zm-.66-.66h.66v-.66h-1.981v.66h.66zm0-1.32h.66v-.661h-1.981v.66h.66zm6.603 1.98h-3.301v-.66h-.661v-.66h.66v-.66h2.641v-.661h-2.64v-.66h3.301v.66h.66v2.641zm-1.32-.66h.66v-.66H220v.66h.66z" aria-label="широкая электрификация южных губерний даст мощный толчок подъёму сельского хозяйства" font-family="SunDogMonospace" font-size="10.566" style="-inkscape-font-specification:SunDogMonospace"/></g><g style="line-height:1;-inkscape-font-specification:SunDog;text-align:center" text-anchor="middle"><path fill="#fff" d="M5.707 112.615h.66v.66H3.726v-.66h-.66v-1.981H1.744v-.66h1.32v-1.322h1.322v1.32h1.32v.66h-1.32v1.984h.66zm5.283.66h-.66v-2.641H8.349v2.641H7.027v-4.622h1.32v1.32h2.643v.66h.661v2.643zm4.623-.66h.66v.66h-3.301v-.66h-.661v-1.981h.66v-.66h3.302v.66h.66v1.32h-3.301v.661h1.32zm-.66-1.32h.66v-.661h-1.981v.66h.66zm11.887 1.98h-.661v-1.32h-2.641v-.66h-.661v-.661h.66v-.66H27.5v3.301zm-1.322-1.98h.66v-.661h-1.98v.66h.66zm6.604 1.98h-3.301v-.66h-.661v-2.641h1.32v2.641h1.982v-2.641h1.321v3.301zm3.962 0h-.66v-3.301h1.32v3.301zm0-4.622h.66v.66h-1.32v-.66zm6.604 3.962h.66v.66h-3.96v-.66h-.661v-1.981h.66v-.66h3.961v.66h-3.301v1.981h1.98zm5.283.66h-.66v-.66h-.66v-.66H45.33v1.32h-1.321v-3.301h1.32v1.32h1.321v-.66h.66v-.66h1.322v.66h-.66v.66h-.66v.66h.66v.661h.66v.66zm9.906 0h-3.301v-4.622h1.32v1.32h2.641v.66h.66v1.983h-.66v.66zm-.66-.66h.66v-1.981h-1.981v1.981h.66zm3.302.66h-.66v-3.301h3.961v.66h-2.64v2.641zm7.924 0h-2.641v-.66h-.66v-1.981h.66v-.66h3.301v.66h.66v1.981h-.66v.66zm-.66-.66h.66v-1.981h-1.981v1.981h.66zm6.604.66v-.66h-.66v-.66h-.661v-.66h.66v-1.322h1.32v3.301zm-3.963 0v-3.301h1.321v1.32h.66v.66h-.66v.661h-.66v.66zm2.642-1.98h-.66v-.661h.66zm6.604 1.98h-.66v-2.641h-1.982v2.641h-1.321v-3.301h3.961v.66h.661v2.641zm8.585 0h-.66v-2.641h-1.322v-.66h1.32v-.66h.66v-.661h2.644v.66h-1.981v.66h1.32v.66h-1.32v2.643zm6.603 0h-2.641v-.66h-.66v-1.981h.66v-.66h3.301v.66h.661v1.981h-.66v.66zm-.66-.66h.66v-1.981h-1.98v1.981h.66zm6.604.66h-.66v-.66h-.661v-.66h-.66v.66h-.66v.66H96.84v-.66h.66v-.66h.66v-.66h-.66v-.661h-.66v-.66h1.32v.66h.66v.66h.661v-.66h.66v-.66h1.321v.66h-.66v.66h-.66v.66h.66v.661h.66v.66zm9.906 0h-2.642v-.66h-.66v-1.32h1.32v1.32h1.981v-2.641h1.322v2.641h-.66v.66zm.66-4.622h.66v.66h-1.32v-.66zm5.282 4.622h-3.301v-.66h-.66v-2.641h1.32v2.641h1.981v-2.641h1.322v3.301zm3.303 0v-2.641h.66v2.641zm1.981 0h-.66v-2.641h-.66v-.66h1.32v.66h.66v2.641zm-3.302 0h-.66v-3.301h1.98v.66h-.66v2.641zm5.283 0h-.66v-3.301h3.962v.66h.66v.66h-.66v.66h-2.641v1.322zm1.981-1.98h.66v-.661h-1.98v.66h.66zm5.944 1.98h-2.641v-.66h2.64v-.66h-2.64v-.66h-.661v-.661h.66v-.66h3.302v.66h-2.641v.66h2.641v.66h.66v.661h-.66v.66zm10.566 0h-2.641v-.66h-.661v-1.981h.66v-.66h3.302v.66h.66v1.981h-.66v.66zm-.66-.66h.66v-1.981h-1.981v1.981h.66zm5.282.66h-1.32v-.66h-.66v-.66h-.661v-1.981h1.32v1.98h.661v.661h.66v-.66h.66v-1.981h1.322v1.98h-.66v.661h-.66v.66zm5.944-.66h.66v.66h-3.301v-.66h-.661v-1.981h.66v-.66h3.302v.66h.66v1.32h-3.301v.661h1.32zm-.66-1.32h.66v-.661h-1.981v.66h.66zm3.301 1.98h-.66v-3.301h3.962v.66h-2.641v2.641zm13.868-.66h.66v.66h-2.64v-.66h-.661v-1.981h-1.32v-.66h1.32v-1.322h1.32v1.32h1.322v.66h-1.32v1.984h.66zm5.283.66h-.66v-2.641h-1.981v2.641h-1.32v-4.622h1.32v1.32h2.641v.66h.66v2.643zm4.623-.66h.66v.66h-3.301v-.66h-.66v-1.981h.66v-.66h3.301v.66h.66v1.32h-3.301v.661h1.32zm-.66-1.32h.66v-.661h-1.981v.66h.66zm11.226 1.32h.66v.66h-1.98v-.66h-.66v-3.962h1.32v3.962zm5.944.66h-3.302v-.66h-.66v-.66h.66v-.66h2.641v-.661h-2.641v-.66h3.301v.66h.661v2.641zm-1.321-.66h.66v-.66h-1.98v.66h.66zm5.944 0h.66v.66h-3.962v-.66h.66v-.66h.66v-.66h.66v-.661h-1.98v-.66h3.96v.66h-.66v.66h-.66v.66h-.66v.661h.66zm5.282.66h-2.641v-.66h2.641v-.66h-2.641v-.66h-.66v-1.322h1.32v1.32h1.981v-1.32h1.321v2.641h-.66v.66zm11.227 0h-3.302v-.66h-.66v-1.981h.66v-.66h2.641v-1.322h1.322v4.622zm-1.32-.66h.66v-1.981h-1.981v1.981h.66zm5.943.66h-2.642v-.66h-.66v-1.981h.66v-.66h3.302v.66h.66v1.981h-.66v.66zm-.66-.66h.66v-1.981h-1.982v1.981h.66zm5.943.66h-2.641v-.66h2.64v-.66h-2.64v-.66h-.661v-.661h.66v-.66h3.962v2.641h-.66v.66zm-.66-1.98h.66v-.661h-1.981v.66h.66z" aria-label="the quick brown fox jumps over the lazy dog" font-family="SunDogMonospace" font-size="10.566" style="-inkscape-font-specification:SunDogMonospace"/></g><g style="line-height:1;-inkscape-font-specification:SunDog;text-align:center" text-anchor="middle"><path fill="#fff" d="M3.726 123.71h-.66v-3.963H1.744v-.661h3.962v.66h-1.32v3.962zm7.264 0h-.66v-1.982H8.349v1.98H7.027v-4.622h1.32v1.98h1.983v-1.98h1.32v4.622zm5.283-.661h.66v.66h-4.622v-4.622h4.622v.66h-3.301v1.32h1.98v.661h-1.98v1.322h1.98zm9.906.661h-2.641v-.661h-.661v-3.301h.66v-.661h3.303v.66h.66v3.302h-.66v.66zm-.66-.661h.66v-.66h-.66v-.66h.66v-1.982h-1.981v3.301h.66zm1.32-.66v-.66h-.66v.66zm4.623 1.321H28.82v-.661h-.661v-3.962h1.32v3.962h1.983v-3.962h1.321v3.962h-.66v.66zm4.622 0h-.66v-4.624h1.32v4.622zm6.604-.661h.66v.66h-3.96v-.66h-.661v-3.301h.66v-.661h3.961v.66h-3.301v3.302h1.98zm5.283.661v-.661h.66v.66zm-3.302 0h-.66v-4.624h1.32v1.98h1.321v.661h.66v.66h.661v.661h-.66v-.66h-.66v-.66H45.33v1.98zm1.982-2.642v-.66h.66v.66zm.66-.66v-.66h.66v.66zm.66-.66v-.661h.66v.66zm9.906 3.962h-3.301v-4.624h3.96v.66h.66v1.32h-.66v.661h.66v1.323h-.66v.66zm-.66-.661h.66v-1.32h-1.981v1.32h.66zm0-1.981h.66v-1.32h-1.981v1.32h.66zm6.603 2.642h-.66v-.661h-.66v-.66h-.66v-.66h-.661v1.98h-1.32v-4.622h3.961v.66h.66v1.32h-.66v.661h-.66v.66h.66v.661h.66v.66zm-1.32-2.642h.66v-1.32h-1.98v1.32h.66zm5.943 2.642h-2.641v-.661h-.66v-3.301h.66v-.661h3.301v.66h.66v3.302h-.66v.66zm-.66-.661h.66v-3.301h-1.981v3.301h.66zm6.604.661v-.661h-.66v-.66h-.661v-.66h.66v-2.643h1.32v4.622zm-3.963 0v-4.624h1.321v2.641h.66v.66h-.66v.661h-.66v.66zm2.642-1.982h-.66v-.66h.66zm6.604 1.982h-.66v-.661h-.661v-1.32h.66v-2.643h1.321v4.622zm-3.302 0h-.66v-4.624h1.32v.66h.66v1.32h.66v.661h-.66v-.66h-.66v2.641zm10.566 0h-.66v-4.624h4.622v.66h-3.301v1.32h1.98v.661h-1.98v1.983zm7.924 0h-2.641v-.661h-.66v-3.301h.66v-.661h3.301v.66h.661v3.302h-.66v.66zm-.66-.661h.66v-3.301h-1.98v3.301h.66zm6.604.661v-.661h.66v.66zm-3.962 0v-.661h.66v.66zm3.962-.661h-.66v-.66h.66zm-3.302 0v-.66h.66v.66zm2.641-.66h-.66v-.66h.66zm-1.98 0v-.66h.66v.66zm1.32-.66h-.66v-.661h.66zm0-.661v-.66h.66v.66zm-.66 0h-.66v-.66h.66zm1.32-.66v-.66h.66v.66zm-1.98 0H97.5v-.66h.66zm2.64-.66v-.661h.661v.66zm-3.301 0h-.66v-.661h.66zm13.208 3.962h-2.642v-.661h-.66v-1.32h1.32v1.32h1.981v-3.962h1.322v3.962h-.66v.66zm5.282 0h-2.641v-.661h-.66v-3.962h1.32v3.962h1.981v-3.962h1.322v3.962h-.66v.66zm3.963-1.982v-.66h.66v.66zm1.981 1.981h-.66v-2.641h-.66v-.66h.66v-.66h.66v-.661h.66v4.622zm-3.302 0h-.66v-4.622h.66v.66h.66v.66h.66v.66h-.66v2.643zm5.283.001h-.66v-4.624h3.962v.66h.66v1.32h-.66v.661h-2.641v1.983zm1.981-2.642h.66v-1.32h-1.98v1.32h.66zm5.944 2.642h-2.641v-.661h2.64v-1.32h-2.64v-.661h-.661v-1.32h.66v-.661h3.302v.66h-2.641v1.32h2.641v.661h.66v1.322h-.66v.66zm10.566 0h-2.641v-.661h-.661v-3.301h.66v-.661h3.302v.66h.66v3.302h-.66v.66zm-.66-.661h.66v-3.301h-1.981v3.301h.66zm4.622.661v-.661h.66v.66zm.66-.661v-.66h.66v.66zm-.66 0h-.66v-.66h.66zm1.32-.66v-3.302h1.322v2.641h-.66v.66zm-1.98 0h-.66v-.66h-.661v-2.643h1.32v2.641zm7.924.66h.66v.66h-4.622v-4.622h4.622v.66h-3.301v1.32h1.98v.661h-1.98v1.322h1.98zm5.283.661h-.66v-.661h-.66v-.66h-.66v-.66h-.661v1.98h-1.32v-4.622h3.96v.66h.66v1.32h-.66v.661h-.66v.66h.66v.661h.66v.66zm-1.32-2.642h.66v-1.32h-1.981v1.32h.66zm9.905 2.642h-.66v-3.963h-1.32v-.661h3.96v.66h-1.32v3.962zm7.264 0h-.66v-1.982h-1.981v1.98h-1.32v-4.622h1.32v1.98h1.981v-1.98h1.32v4.622zm5.284-.661h.66v.66h-4.622v-4.622h4.621v.66h-3.301v1.32h1.981v.661h-1.981v1.322h1.981zm10.566 0h.66v.66h-4.622v-4.622h1.32v3.962h1.981zm5.283.661h-.66v-1.982h-1.982v1.98h-1.321v-3.96h.66v-.661h3.301v.66h.661v3.962zm-1.321-2.642h.66v-1.32h-1.98v1.32h.66zm6.604 1.981h.66v.66h-4.622v-.66h.66v-.66h.66v.66h1.982zm-2.642-.66v-.66h.66v.66zm.66-.66v-.661h.661v.66zm.661-.661v-.66h.66v.66zm.66-.66v-.66h-3.301v-.661h4.622v.66h-.66v.66zm3.963 3.302h-.66v-1.982h-.661v-.661h-.66v-1.981h1.32v1.98h1.321v-1.98h1.32v1.98h-.66v.661h-.66v1.983zm11.887 0h-3.302v-4.624h3.961v.66h.661v3.302h-.66v.66zm-.66-.661h.66v-3.301h-1.981v3.301h.66zm5.943.661h-2.642v-.661h-.66v-3.301h.66v-.661h3.302v.66h.66v3.302h-.66v.66zm-.66-.661h.66v-3.301h-1.982v3.301h.66zm5.943.661h-2.641v-.661h-.661v-3.301h.66v-.661h3.302v.66h-2.641v3.302h1.98v-1.32h1.322v1.32h-.66v.66z" aria-label="THE QUICK BROWN FOX JUMPS OVER THE LAZY DOG" font-family="SunDogMonospace" font-size="10.566" style="-inkscape-font-specification:SunDogMonospace"/></g><g style="line-height:1;-inkscape-font-specification:SunDog;text-align:center" text-anchor="middle"><path fill="#fff" d="M6.697 130.841v-.66h.66v.66zm1.321 1.982H5.377v-.66h-.66v-3.303h.66v-.661h3.301v.66h.661v3.303h-.66v.66zm-.66-.66h.66v-3.303h-1.98v3.301h.66zm5.282.66h-.66v-2.641h-1.32v-.661h.66v-.66h.66v-.661h1.322v4.622zm6.605-.661h.66v.66h-4.622v-1.98h.66v-.66h2.641v-1.322h-2.641v-.661h3.301v.66h.661v1.322h-.66v.66h-2.641v1.321h1.98zm4.622.661h-3.301v-.66h3.301v-1.322h-1.98v-.66h1.98v-1.321h-3.301v-.661h3.96v.66h.661v1.322h-.66v.66h.66v1.321h-.66v.66zm5.943 0h-.66v-1.981h-3.3V128.2h1.32v1.981h1.98V128.2h1.321v4.622zm4.623 0h-2.641v-.66h2.641v-1.322h-3.301V128.2h4.622v.66h-3.301v1.321h2.64v.66h.661v1.321h-.66v.66zm5.284 0h-2.642v-.66h-.66v-3.303h.66v-.661h3.301v.66h-2.64v1.322h2.64v.66h.661v1.321h-.66v.66zm-.66-.66h.66v-1.322h-1.981v1.32h.66zm5.283.66h-1.322v-.66h.66v-1.322h.66v-1.321H45v-.66h-3.301v-.661h4.622v1.981h-.66v1.32H45v1.323zm5.943 0h-2.641v-.66h-.661v-1.322h.66v-.66h-.66v-1.321h.66v-.661h3.302v.66h.66v1.322h-.66v.66h.66v1.321h-.66v.66zm-.66-.66h.66v-1.322h-1.981v1.32h.66zm0-1.982h.66v-1.32h-1.981v1.32h.66zm5.943 2.642h-2.641v-.66h2.64v-1.322h-2.64v-.66h-.661v-1.321h.66v-.661h3.302v.66h.66v3.303h-.66v.66zm-.66-2.642h.66v-1.32h-2.641v1.32h1.32zm5.282-.661h-.66v-.66h.66v-.66h1.322v.66h-.66v.66zm-1.98 0h-.661v-.66h.66v-.66h1.321v.66h-.66v.66zm7.924.661h-.66V128.2h1.32v1.981zm-1.981 0h-.66V128.2h1.32v1.981zm7.264 2.642h-.66v-1.321h-.66v1.32h-1.322v-1.32h-.661v-.66h.66v-.66h-.66v-.661h.66V128.2h1.322v1.32h.66v-1.32h1.321v1.32h.66v.661h-.66v.66h.66v.66h-.66v1.322zm-.66-1.982v-.66h-.66v.66zm4.622 1.982h-.66v-.66h-1.321v-.661h2.641v-.66h-1.98v-.66h-.661v-.661h.66v-.66h.66v-.661h1.322v.66h1.321v.66h-2.641v.661h1.98v.66h.661v.66h-.66v.661h-.66v.66zm3.302 0v-.66h.66v.66zm3.962 0h-.66v-1.321h1.32v1.32zm-3.302-.66v-.661H80v.66zm.66-.661v-.66h.661v.66zm.661-.66v-.66h.66v.66zm.66-.66v-.661h.66v.66zm.66-.661v-.66h.661v.66zm-2.64 0h-.661V128.2h1.32v1.32zm3.301-.66v-.661h.66v.66zm4.623 3.301v-.66h.66v.66zm-1.981 0h.66v.66h-1.32v-.66zm.66 0v-.66h.66v.66zm-1.32 0h-.66v-1.98h.66v1.32zm2.641-.66h-.66v-.66h.66zm0-.66v-.66h.66v.66zm-.66 0h-.66v-.66h.66zm-.66-.66h-1.322v-.661h1.32zm0-.661v-.66h.66v.66zm-1.322 0h-.66v-.66h.66zm1.321-.66h-1.32v-.661h1.32zm6.604 1.32v-.66h-.66V128.2h1.32v1.981zm5.943 2.642h-.66v-.66h-.66v-3.303h.66v-.661h1.32v.66h-.66v3.303h.66v.66zm2.642 0h-.66v-.66h.66v-3.303h-.66v-.661h1.32v.66h.66v3.303h-.66v.66zm5.943-1.321v-.66h.66v.66zm-1.32 0v-.66h.66v.66zm1.32-.66h-.66v-.66h.66zm0-.66v-.661h.66v.66zm-.66 0h-.66v-.661h.66zm5.283 1.98v-1.32h-1.32v-.66h1.32v-1.322h.66v1.32h1.322v.66h-1.32v1.322zm5.944 1.321v-.66h-.66v-1.321h1.32v1.981zm5.943-3.302h.66v.66h-3.301v-.66h1.98zm4.623 2.642h-.66v-1.321h1.32v1.32zm3.302 0v-.66h.66v.66zm.66-.66v-.661h.66v.66zm.66-.661v-.66h.66v.66zm.66-.66v-.66h.661v.66zm.661-.66v-.661h.66v.66zm.66-.661v-.66h.66v.66zm.66-.66v-.661h.661v.66zm3.303 3.962h-.66v-1.321h1.32v1.32zm0-2.642h-.66v-1.32h1.32v1.32zm5.283 3.302v-.66h-.66v-1.321h1.32v1.981zm0-3.302h-.66v-1.32h1.32v1.32zm5.943 2.642v-.66h.66v.66zm0-.66h-.66v-.661h.66zm-.66-.661h-.66v-.66h.66zm-.66-.66h-.66v-.66h.66zm0-.66v-.661h.66v.66zm.66-.661v-.66h.66v.66zm.66-.66v-.661h.66v.66zm5.944 1.32h.66v.66h-3.962v-.66h2.641zm0-1.32h.66v.66h-3.962v-.66h2.641zm2.641 3.962v-.66h.66v.66zm.66-.66v-.661h.66v.66zm.66-.661v-.66h.661v.66zm.661-.66v-.66h.66v.66zm0-.66h-.66v-.661h.66zm-.66-.661h-.66v-.66h.66zm-.66-.66h-.66v-.661h.66zm5.943 3.301h.66v.66h-1.32v-.66zm0-.66h-.66v-1.32h1.32v-1.322h-1.32v.66h-1.321v-.66h.66v-.661h2.642v.66h.661v1.322h-.66v.66h-.66v.66zm6.604 1.321h-2.641v-.66h-.661v-3.303h.66v-.661h3.302v.66h.66v1.322h-.66v.66h-1.981v-1.32h.66v.66h.66v-1.32h-1.98v3.301h1.98v-.66h1.322v.66h-.66v.66zm5.943 0h-1.32V128.2h1.98v.66h-.66v3.302h.66v.66zm5.284 0v-.66h.66v.66zm0-.66h-.661v-.661h.66zm-.661-.661h-.66v-.66h.66zm-.66-.66h-.66v-.66h.66zm-.66-.66h-.661v-.661h.66zm-.661-.661h-.66v-.66h.66zm-.66-.66h-.661v-.661h.66zm6.603 3.962h-1.32v-.66h.66v-3.303H185v-.661h1.98v4.622zm6.604-2.642v-.66h.66v.66zm-2.642 0v-.66h.66v.66zm2.642-.66h-.66v-.66h.66zm-1.981 0v-.66h.66v.66zm1.32-.66h-.66v-.661h.66zm5.284 3.301h.66v.66h-3.301v-.66h1.98zm3.962-1.981V128.2h1.32v1.32h-.66v.661zm7.925 1.981h.66v.66h-1.981v-.66h-.66v-1.32h-.661v-.66h.66v-1.322h.66v-.661h1.982v.66h-1.32v3.303zm3.301.661V128.2h.66v4.622zm5.284 0h-1.322v-.66h1.32v-3.303h-1.32v-.661h1.98v.66h.661v1.322h.66v.66h-.66v1.321h-.66v.66zm5.943-3.303h-.66v-.66h.66v-.66h1.32v.66h-.66v.66zm-1.981 0h-.66v-.66h.66v-.66h1.32v.66h-.66v.66z" aria-label="0123456789~&quot;#$%&amp;'()*+,-./:;&lt;=&gt;?@[\]^_`{|}~" font-family="SunDogMonospace" font-size="10.566" style="-inkscape-font-specification:SunDogMonospace"/></g><g style="line-height:.6;-inkscape-font-specification:SunDog;text-align:center" text-anchor="middle"><path fill="#fff" d="M8.679 96.634H4.717v-4.622h1.32v3.96h.66v-1.98h.66v1.98h.661v-3.96H9.34v4.621zm5.283 0h-.66v-2.641h-.661v.66h-.66v1.32h-.66v.66H10v-4.621h1.32v2.64h.66v-.66h.66v-1.32h.661v-.66h1.321v4.621zm1.981 0h-.66v-4.622h3.96v.66h.661v1.32h-.66v.66h-2.64v1.982zm1.981-2.642h.66v-1.32h-1.98v1.32h.66zm5.943 2.642h-2.641v-.66h-.66v-3.303h.66v-.66h3.301v.66h.661v3.301h-.66v.66zm-.66-.66h.66v-3.303h-1.98v3.301h.66zm6.603.66v-.66h.661v.66zm-3.301 0h-.66v-4.622h1.32v1.98h1.321v.66h.66v.661h.66v.66h-.66v-.66h-.66v-.66h-1.32v1.98zm1.981-2.642v-.66h.66v.66zm.66-.66v-.66h.66v.66zm.66-.66v-.66h.661v.66zm5.284 3.962h-.66v-1.981h-1.982v1.98h-1.321v-3.96h.66v-.66h3.301v.66h.661v3.96zm-1.32-2.642h.66v-1.32h-1.982v1.32h.66zm6.603 2.642h-.66v-1.981h-.66v.66h-.661v.66h-.66v.66h-1.322v-.66h.66v-.66h.66v-.66h-.66v-.66h-.66v-1.322h.66v-.66h3.962v4.621zm-1.32-2.642h.66v-1.32h-2.642v1.32h1.32zm11.226 2.642H46.98v-.66h3.301v-1.322h-1.98v-.66h1.98v-1.321H46.98v-.66h3.962v.66h.66v3.301h-.66v.66zm5.943 0h-.66v-3.962h-1.321v3.961h-1.981v-.66h.66v-3.301h.66v-.66h3.303v4.621zm5.284-.661h.66v.66h-4.623v-4.621h4.622v.66h-3.301v1.32h1.98v.66h-1.98v1.322h1.98zm5.282.661v-.66h.66v.66zm-3.302 0h-.66v-4.622h1.32v1.98h1.322v.66h.66v.661h.661v.66h-.66v-.66h-.66v-.66H64.15v1.98zm1.981-2.642v-.66h.66v.66zm.66-.66v-.66h.661v.66zm.661-.66v-.66h.66v.66zm3.302 3.962h-.66v-3.962h-1.321v-.66h3.962v.66h-1.32v3.961zm3.962 0h-.66v-4.622h3.962v.66h.66v1.32h-.66v.66h-2.641v1.982zm1.982-2.642h.66v-1.32h-1.981v1.32h.66zm6.603 2.642h-.66v-2.641h-.66v.66h-.66v1.32H80v.66h-1.321v-4.621h1.32v2.64h.661v-.66h.66v-1.32h.66v-.66h1.322v4.621zm3.302.66v-.66h-1.32v-.66h-.66v-3.303h.66v-.66h3.301v.66h.66v3.301h-.66v.66h-1.32v.661zm1.321-1.32v-3.303h-.66v3.301zm-1.32 0v-3.303h-.661v3.301zm7.263.66h-.66v-2.641h-.66v.66h-.66v1.32h-.661v.66h-1.32v-4.621h1.32v2.64h.66v-.66h.66v-1.32h.661v-.66h1.32v4.621zm5.283 0v-.66h.66v.66zm-3.301 0h-.66v-4.622h1.32v1.98h1.32v.66h.661v.661h.66v.66h-.66v-.66h-.66v-.66h-1.321v1.98zm1.98-2.642v-.66h.661v.66zm.661-.66v-.66h.66v.66zm.66-.66v-.66h.66v.66zm5.284 3.962h-.66v-1.981h-1.983v1.98h-1.32v-3.96h.66v-.66h3.301v.66h.66v3.96zm-1.321-2.642h.66v-1.32h-1.981v1.32h.66zm6.604 3.302v-.66h-3.962v-4.622h1.32v3.96h1.981v-3.96h1.321v5.282zm5.283-.66h-.66v-2.641h-.661v.66h-.66v1.32h-.66v.66h-1.322v-4.621h1.32v2.64h.66v-.66h.66v-1.32h.661v-.66H115v4.621zm5.283 0h-.66v-1.981h-.661v.66h-.66v.66h-.66v.66h-1.322v-.66h.66v-.66h.66v-.66h-.66v-.66h-.66v-1.322h.66v-.66h3.962v4.621zm-1.321-2.642h.66v-1.32h-2.641v1.32h1.32zm11.226 2.642h-1.32v-.66h-.66v.66h-1.322v-4.622h1.32v.66h.66v-.66h1.983v.66h.661v3.301h-.66v.66zm0-.66v-3.303h-.66v3.301zm3.962.66v-.66h-.66v.66h-1.32v-.66h.66v-.66h.66v-.661h.66v-.66h-.66v-.661h-.66v-.66h-.66v-.66h1.32v.66h.66v-.66h.661v.66h.66v-.66h1.321v.66h-.66v.66h-.66v.66h-.66v.66h.66v.661h.66v.66h.66v.66h-1.32v-.66h-.66v.66zm7.265 0h-.66v-1.981h-1.982v1.98h-1.321v-4.621h1.32v1.98h1.982v-1.98h1.321v4.621zm5.283 0h-.66v-.66h-.66v.66h-2.643v-4.622h1.32v1.98h1.322v.66h.66v-2.64h1.322v4.621zm-1.981-.66v-1.322h-.66v1.32zm7.264.66v-.66h.66v.66zm-3.962 0v-.66h.66v.66zm3.962-.66h-.66v-.66h.66zm-3.302 0v-.66h.66v.66zm2.642-.66H150v-.661h.66zm-1.982 0v-.661h.66v.66zm1.321-.661h-.66v-.66h.66zm0-.66v-.661h.66v.66zm-.66 0h-.66v-.661h.66zm1.32-.661v-.66h.661v.66zm-1.98 0h-.66v-.66h.66zm2.641-.66v-.66h.66v.66zm-3.302 0h-.66v-.66h.66zm10.566 3.962h-.66v-4.622h4.622v.66h-3.301v3.961zm7.925 0h-2.641v-.66h2.64v-1.322h-2.64v-.66h-.661v-1.981h1.32v1.98h1.982v-1.98h1.32v3.961h-.66v.66zm5.283 0h-3.303v-4.622h3.962v.66h-2.641v1.32h2.641v.66h.66v1.322h-.66v.66zm-.66-.66h.66v-1.322h-1.981v1.32h.66zm6.603-.001h.66v.66h-4.622v-4.621h4.622v.66h-3.301v1.32h1.98v.66h-1.98v1.322h1.98zm1.981.661h-.66v-4.622h3.962v.66h.66v1.32h-.66v.66h-2.641v1.982zm1.982-2.642h.66v-1.32h-1.981v1.32h.66zm6.603 2.642h-.66v-1.981h-1.981v1.98h-1.321v-4.621h1.32v1.98h1.983v-1.98h1.32v4.621zm5.283 0h-.66v-2.641h-.66v.66h-.66v1.32h-.661v.66h-1.32v-4.621h1.32v2.64h.66v-.66h.66v-1.32h.661v-.66h1.32v4.621zm5.283 0h-.66v-1.981h-.66v.66h-.66v.66h-.661v.66h-1.32v-3.301h1.32v1.981h.66v-.66h.66v-.66h.661v-.661h1.32v3.301zm-1.32-4.623h.66v.66h-1.981v-.66h.66zm11.887 5.283h-.66v-.66h-1.983v.66h-1.32v-1.32h.66v-3.303h.66v-.66h2.641v3.961h.66v1.322zm-1.321-1.32v-3.303h-.66v3.301zm6.604.66h-.66v-1.981h-1.982v1.98h-1.321v-3.96h.66v-.66h3.301v.66h.661v3.96zm-1.321-2.642h.66v-1.32h-1.98v1.32h.66zM220 95.973h.661v.66h-3.962v-.66h-.66v-3.301h.66v-.66h3.962v.66h-3.301v3.301h1.98zm3.303.661h-.66v-3.962h-1.322v-.66h3.961v.66h-1.32v3.961zM9.339 101.52v-.66h.66v.66zm1.981 1.982h-.66v-2.642H10v-.661h.66v-.66h.66v-.66h.66v4.621zm-3.302 0h-.66V98.88h.66v.66h.66v.66h.661v.66h-.66v2.641zm7.925 0h-2.641v-.66h-.661V99.54h.66v-.66h3.302v.66h.66v3.301h-.66v.66zm-.66-.66h.66V99.54h-1.981v3.301h.66zm6.603 1.32v-.66h-3.962V98.88h1.32v3.96h.661v-1.98h.66v1.98h.66v-3.96h1.322v5.282zm5.284-.66h-.661v-1.982h-1.981v1.98h-1.321v-4.62h1.32v1.98h1.982v-1.98h1.321v4.621zm5.282 0h-.66v-.66h-.66v.66H28.49V98.88h1.32v1.98h1.32v.66h.661v-2.64h1.32v4.621zm-1.98-.66v-1.322h-.661v1.32zm7.263.66h-.66v-1.982h-.66v.66h-.66v.66h-.661v.66h-1.32v-3.3h1.32v1.981h.66v-.66h.66v-.66h.661v-.661h1.32v3.301zm-1.32-4.623h.66v.66h-1.981v-.66h.66zm9.905 4.623h-.66V99.54h-1.32v-.66h3.96v.66h-1.32v3.96zm6.604 0h-2.641v-.66h-.66V99.54h.66v-.66h3.301v.66h.66v3.301h-.66v.66zm-.66-.66h.66V99.54h-1.981v3.301h.66zm6.604.66h-.66V99.54h-1.322v3.96h-1.981v-.66h.66v-3.3h.66v-.66h3.302v4.621zm5.282 0h-.66v-1.982h-3.3v-2.64h1.32v1.98h1.981v-1.98h1.32v4.621zm4.623 0h-2.641v-.66h-.66V99.54h.66v-.66h3.301v.66h.661v3.301h-.66v.66zm-.66-.66h.66V99.54h-1.98v3.301h.66zm6.604.66v-.66h.66v.66zm-3.302 0h-.66V98.88h1.32v1.98h1.321v.66h.66v.661h.66v.66h-.66v-.66h-.66v-.66h-1.32v1.98zm1.981-2.642v-.66h.66v.66zm.66-.66v-.66h.66v.66zm.66-.66v-.66h.661v.66zm10.567 3.962h-.66V99.54h-1.982v3.96H81.32v-4.62h4.622v4.621zm4.623 0h-2.642v-.66h-.66V99.54h.66v-.66h3.301v.66h.661v3.301h-.66v.66zm-.66-.66h.66V99.54h-1.981v3.301h.66zm6.603 1.32h-.66v-.66h-1.981v.66h-1.322v-1.32h.66V99.54h.66v-.66h2.644v3.96h.66v1.322zm-1.32-1.32V99.54h-.661v3.301zm5.943.66H97.17V99.54h-.66v-.66h1.98v1.98h2.642v.66h.66v1.322h-.66v.66zm-.66-.66h.66v-1.322H98.49v1.32h.66zm5.282-3.302v-.66h.66v.66zm-1.32 0v-.66h.66v.66zm2.641 3.301h.66v.66h-4.622V100.2h4.622v.66h-3.301v.66h1.98v.661h-1.98v.66h1.98zm3.302-1.321v-.66h.66v.66zm1.981 1.982h-.66v-2.642h-.66v-.661h.66v-.66h.66v-.66h.66v4.621zm-3.302 0h-.66V98.88h.66v.66h.66v.66h.661v.66h-.66v2.641zm7.924 0h-2.64v-.66h2.64v-1.322h-2.64v-.66h-.661v-1.98h1.32v1.98h1.981v-1.98h1.322v3.96h-.66v.66zm11.227-.661h.66v.66h-3.96v-.66h-.661V99.54h.66v-.66h3.961v.66h-3.301v3.301h1.98zm5.283 0h.66v.66h-4.622V98.88h4.622v.66h-3.301v1.32h1.98v.66h-1.98v1.322h1.98zm5.283.661h-.66V99.54h-1.32v3.96h-1.982v-.66h.66v-3.3h.66v-.66h3.301v4.621zm4.623 0h-3.301V98.88h1.32v1.98h2.641v.66h.66v1.322h-.66v.66zm-.66-.66h.66v-1.322h-1.981v1.32h.66zm6.604-.001h.66v.66h-3.962v-.66h-.66V99.54h.66v-.66h3.961v.66h-3.301v3.301h1.981zm5.283.661v-.66h.66v.66zm-3.302 0H150V98.88h1.32v1.98h1.32v.66h.661v.661h.66v.66h-.66v-.66h-.66v-.66h-1.321v1.98zm1.98-2.642v-.66h.661v.66zm.661-.66v-.66h.66v.66zm.66-.66v-.66h.66v.66zm4.623 3.962h-2.641v-.66h-.66V99.54h.66v-.66h3.301v.66h.66v3.301h-.66v.66zm-.66-.66h.66V99.54h-1.981v3.301h.66zm3.302.66h-.66V98.88h4.622v.66h-3.301v3.96zm7.924 0h-2.641v-.66h-.66V99.54h.66v-.66h3.301v.66h.661v3.301h-.66v.66zm-.66-.66h.66V99.54h-1.98v3.301h.66zm11.887.66v-.66h.66v.66zm-3.963 0v-.66h.66v.66zm3.963-.66h-.66v-.661h.66zm-3.302 0v-.661h.66v.66zm2.641-.661h-.66v-.66h.66zm-1.98 0v-.66h.66v.66zm1.32-.66h-.66v-.66h.66zm0-.66v-.661h.66v.66zm-.66 0h-.66v-.661h.66zm1.32-.661v-.66h.66v.66zm-1.98 0h-.661v-.66h.66zm2.64-.66v-.66h.661v.66zm-3.301 0h-.66v-.66h.66zm7.924 3.962h-2.641v-.66h-.66V99.54h.66v-.66h3.301v.66h.661v3.301h-.66v.66zm-.66-.66h.66V99.54h-1.98v3.301h.66zm5.943.66h-3.301v-.66h3.301v-1.322h-1.98v-.66h1.98v-1.32h-3.301v-.66h3.961v.66h.661v1.32h-.66v.66h.66v1.322h-.66v.66zm5.944 0h-.66v-1.982h-.66v.66h-.661v.66h-.66v.66h-1.322v-.66h.66v-.66h.66v-.66h-.66v-.66h-.66v-1.32h.66v-.66h3.962v4.621zm-1.32-2.642h.66v-1.32h-2.642v1.32h1.32zm6.603 2.642h-.66v-1.982h-.66v.66h-.661v.66h-.66v.66h-1.322v-3.3h1.32v1.981h.66v-.66h.661v-.66h.66v-.661h1.322v3.301zm-1.32-4.623h.66v.66h-1.981v-.66h.66zm6.603 3.962h.66v.66h-3.961v-.66h-.661V99.54h.66v-.66h3.962v.66h-3.301v3.301h1.98zm3.302.661h-.66V99.54h-1.321v-.66h3.962v.66h-1.32v3.96zm6.604 0h-3.302V98.88h3.962v.66h.66v1.32h-.66v.66h.66v1.322h-.66v.66zm-.66-.66h.66v-1.322h-1.981v1.32h.66zm0-1.982h.66v-1.32h-1.981v1.32h.66zm6.603 2.642h-.66v-1.982H220v1.98h-1.32v-3.96h.66v-.66h3.302v.66h.66v3.96zm-1.32-2.642h.66v-1.32H220v1.32h.66z" aria-label="ШИРОКАЯ ЭЛЕКТРИФИКАЦИЯ ЮЖНЫХ ГУБЕРНИЙ ДАСТ МОЩНЫЙ ТОЛЧОК ПОДЪЁМУ СЕЛЬСКОГО ХОЗЯЙСТВА" font-family="SunDogMonospace" font-size="10.566" style="-inkscape-font-specification:SunDogMonospace"/></g></svg>